<svg width="39" height="39" viewBox="0 0 39 39" fill="none" xmlns="http://www.w3.org/2000/svg">
<g filter="url(#filter0_d_363_829)">
<rect x="4" y="2" width="31" height="31" rx="6" fill="#F38218"/>
</g>
<path d="M17.5099 18.2508L22.6936 23.4333C22.811 23.5506 22.8769 23.7098 22.8769 23.8758C22.8769 24.0418 22.811 24.2009 22.6936 24.3183C22.5763 24.4356 22.4171 24.5016 22.2511 24.5016C22.0851 24.5016 21.926 24.4356 21.8086 24.3183L16.1836 18.6933C16.1254 18.6352 16.0792 18.5663 16.0477 18.4903C16.0162 18.4144 16 18.333 16 18.2508C16 18.1686 16.0162 18.0872 16.0477 18.0112C16.0792 17.9353 16.1254 17.8663 16.1836 17.8083L21.8086 12.1833C21.926 12.0659 22.0851 12 22.2511 12C22.4171 12 22.5763 12.0659 22.6936 12.1833C22.811 12.3006 22.8769 12.4598 22.8769 12.6258C22.8769 12.7918 22.811 12.9509 22.6936 13.0683L17.5099 18.2508Z" fill="white"/>
<defs>
<filter id="filter0_d_363_829" x="0" y="0" width="39" height="39" filterUnits="userSpaceOnUse" color-interpolation-filters="sRGB">
<feFlood flood-opacity="0" result="BackgroundImageFix"/>
<feColorMatrix in="SourceAlpha" type="matrix" values="0 0 0 0 0 0 0 0 0 0 0 0 0 0 0 0 0 0 127 0" result="hardAlpha"/>
<feOffset dy="2"/>
<feGaussianBlur stdDeviation="2"/>
<feComposite in2="hardAlpha" operator="out"/>
<feColorMatrix type="matrix" values="0 0 0 0 0 0 0 0 0 0 0 0 0 0 0 0 0 0 0.1 0"/>
<feBlend mode="normal" in2="BackgroundImageFix" result="effect1_dropShadow_363_829"/>
<feBlend mode="normal" in="SourceGraphic" in2="effect1_dropShadow_363_829" result="shape"/>
</filter>
</defs>
</svg>
