<svg width="14" height="14" viewBox="0 0 14 14" fill="none" xmlns="http://www.w3.org/2000/svg">
<path d="M7 0C8.38447 0 9.73785 0.410543 10.889 1.17971C12.0401 1.94888 12.9373 3.04213 13.4672 4.32122C13.997 5.6003 14.1356 7.00776 13.8655 8.36563C13.5954 9.7235 12.9287 10.9708 11.9497 11.9497C10.9708 12.9287 9.7235 13.5954 8.36563 13.8655C7.00776 14.1356 5.6003 13.997 4.32121 13.4672C3.04213 12.9373 1.94888 12.0401 1.17971 10.889C0.410542 9.73785 -6.96915e-07 8.38447 -6.96915e-07 7C0.00195918 5.14409 0.740086 3.36475 2.05242 2.05242C3.36475 0.740087 5.14408 0.00195988 7 0ZM3.23077 7.53846H7C7.14281 7.53846 7.27977 7.48173 7.38075 7.38075C7.48173 7.27977 7.53846 7.14281 7.53846 7V3.23077C7.53846 3.08796 7.48173 2.951 7.38075 2.85002C7.27977 2.74904 7.14281 2.69231 7 2.69231C6.85719 2.69231 6.72023 2.74904 6.61925 2.85002C6.51827 2.951 6.46154 3.08796 6.46154 3.23077V6.46154H3.23077C3.08796 6.46154 2.951 6.51827 2.85002 6.61925C2.74904 6.72023 2.69231 6.85719 2.69231 7C2.69231 7.14281 2.74904 7.27977 2.85002 7.38075C2.951 7.48173 3.08796 7.53846 3.23077 7.53846Z" fill="#A2A7AD"/>
</svg>
