<svg width="8" height="9" viewBox="0 0 8 9" fill="none" xmlns="http://www.w3.org/2000/svg">
<path d="M4 0C4.79112 0 5.56448 0.26392 6.22228 0.758387C6.88008 1.25285 7.39277 1.95566 7.69552 2.77792C7.99827 3.60019 8.07748 4.50499 7.92314 5.37791C7.7688 6.25082 7.38784 7.05264 6.82843 7.68198C6.26902 8.31131 5.55628 8.7399 4.78036 8.91353C4.00444 9.08716 3.20017 8.99805 2.46927 8.65746C1.73836 8.31686 1.11365 7.74008 0.674121 7.00006C0.234595 6.26004 -4.76837e-07 5.39001 -4.76837e-07 4.5C0.00111945 3.30691 0.422907 2.16305 1.17281 1.31941C1.92271 0.47577 2.93948 0.00125992 4 0ZM1.84615 4.84615H4C4.0816 4.84615 4.15987 4.80968 4.21757 4.74477C4.27527 4.67985 4.30769 4.5918 4.30769 4.5V2.07692C4.30769 1.98512 4.27527 1.89707 4.21757 1.83215C4.15987 1.76724 4.0816 1.73077 4 1.73077C3.91839 1.73077 3.84013 1.76724 3.78243 1.83215C3.72472 1.89707 3.69231 1.98512 3.69231 2.07692V4.15385H1.84615C1.76455 4.15385 1.68628 4.19031 1.62858 4.25523C1.57088 4.32015 1.53846 4.40819 1.53846 4.5C1.53846 4.5918 1.57088 4.67985 1.62858 4.74477C1.68628 4.80968 1.76455 4.84615 1.84615 4.84615Z" fill="white"/>
</svg>
