<svg width="28" height="28" viewBox="0 0 28 28" fill="none" xmlns="http://www.w3.org/2000/svg">
<path d="M6.23529 7.64703H4.82352C4.07468 7.64703 3.3565 7.94451 2.82699 8.47402C2.29748 9.00354 2 9.72171 2 10.4706V23.1764C2 23.9253 2.29748 24.6434 2.82699 25.173C3.3565 25.7025 4.07468 25.9999 4.82352 25.9999H17.5294C18.2782 25.9999 18.9964 25.7025 19.5259 25.173C20.0554 24.6434 20.3529 23.9253 20.3529 23.1764V21.7647" stroke="#2B6F64" stroke-width="2.08696" stroke-linecap="round" stroke-linejoin="round"/>
<path d="M18.9412 4.82368L23.1765 9.05896M25.1318 7.06132C25.6878 6.5053 26.0001 5.75118 26.0001 4.96485C26.0001 4.17852 25.6878 3.4244 25.1318 2.86838C24.5757 2.31237 23.8216 2 23.0353 2C22.249 2 21.4948 2.31237 20.9388 2.86838L9.05884 14.706V18.9413H13.2941L25.1318 7.06132Z" stroke="#2B6F64" stroke-width="2.08696" stroke-linecap="round" stroke-linejoin="round"/>
</svg>
