<svg width="26" height="26" viewBox="0 0 26 26" fill="none" xmlns="http://www.w3.org/2000/svg">
<rect width="26" height="26" rx="13" fill="#F38218"/>
<path d="M13.5 6.5C13.6912 6.50021 13.875 6.57341 14.014 6.70464C14.153 6.83586 14.2367 7.01521 14.2479 7.20605C14.2591 7.39688 14.197 7.58478 14.0743 7.73137C13.9516 7.87796 13.7776 7.97217 13.5877 7.99475L13.5 8H7.5V18.5H18V12.5C18.0002 12.3088 18.0734 12.125 18.2046 11.986C18.3359 11.847 18.5152 11.7633 18.706 11.7521C18.8969 11.7409 19.0848 11.803 19.2314 11.9257C19.378 12.0484 19.4722 12.2224 19.4948 12.4123L19.5 12.5V18.5C19.5001 18.8784 19.3572 19.2429 19.0999 19.5204C18.8426 19.7979 18.4899 19.9679 18.1125 19.9963L18 20H7.5C7.12157 20.0001 6.75708 19.8572 6.47959 19.5999C6.2021 19.3426 6.03213 18.9899 6.00375 18.6125L6 18.5V8C5.99988 7.62157 6.1428 7.25708 6.40012 6.97959C6.65744 6.7021 7.01013 6.53213 7.3875 6.50375L7.5 6.5H13.5ZM18.1823 6.75725C18.3172 6.62274 18.4983 6.54464 18.6888 6.53883C18.8793 6.53301 19.0648 6.59991 19.2077 6.72594C19.3506 6.85196 19.4402 7.02766 19.4583 7.21736C19.4764 7.40705 19.4216 7.59651 19.305 7.74725L19.2427 7.8185L11.8177 15.2427C11.6828 15.3773 11.5017 15.4554 11.3112 15.4612C11.1208 15.467 10.9352 15.4001 10.7923 15.2741C10.6494 15.148 10.5598 14.9723 10.5417 14.7826C10.5236 14.593 10.5784 14.4035 10.695 14.2527L10.7573 14.1823L18.1823 6.75725Z" fill="white"/>
</svg>
