<svg width="22" height="24" viewBox="0 0 22 24" fill="none" xmlns="http://www.w3.org/2000/svg">
<rect width="21.6964" height="23.3036" rx="10.8482" fill="#F38218"/>
<path d="M4.98964 17.508H6.13868L13.2176 10.4189L12.0686 9.26823L4.98964 16.3573V17.508ZM16.7263 9.22713L13.2381 5.77507L14.3872 4.62439C14.7018 4.30932 15.0884 4.15179 15.5469 4.15179C16.0054 4.15179 16.3917 4.30932 16.7058 4.62439L17.8548 5.77507C18.1695 6.09014 18.3336 6.47042 18.3473 6.9159C18.361 7.36138 18.2105 7.74138 17.8959 8.0559L16.7263 9.22713ZM15.5362 10.4395L6.83632 19.1518H3.34814V15.6586L12.0481 6.94631L15.5362 10.4395ZM12.6431 9.84357L12.0686 9.26823L13.2176 10.4189L12.6431 9.84357Z" fill="white"/>
</svg>
