<svg width="19" height="22" viewBox="0 0 19 22" fill="none" xmlns="http://www.w3.org/2000/svg">
<path d="M17.2174 21.913H15.6522V19.5652C15.6509 18.5278 15.2383 17.5332 14.5047 16.7996C13.7711 16.0661 12.7766 15.6534 11.7391 15.6522H7.04348C6.00606 15.6534 5.01148 16.0661 4.27791 16.7996C3.54434 17.5332 3.13168 18.5278 3.13043 19.5652V21.913H1.56522V19.5652C1.56687 18.1128 2.14458 16.7203 3.17159 15.6933C4.19861 14.6663 5.59106 14.0886 7.04348 14.087H11.7391C13.1915 14.0886 14.584 14.6663 15.611 15.6933C16.638 16.7203 17.2157 18.1128 17.2174 19.5652V21.913ZM0.782609 3.13043C0.575048 3.13043 0.375989 3.21289 0.229221 3.35965C0.0824533 3.50642 0 3.70548 0 3.91304V10.9565H1.56522V3.91304C1.56522 3.70548 1.48276 3.50642 1.336 3.35965C1.18923 3.21289 0.99017 3.13043 0.782609 3.13043Z" fill="#F38218"/>
<path d="M0 0V1.56522H3.91304V7.04348C3.91304 8.4964 4.49022 9.88982 5.51759 10.9172C6.54496 11.9446 7.93838 12.5217 9.3913 12.5217C10.8442 12.5217 12.2376 11.9446 13.265 10.9172C14.2924 9.88982 14.8696 8.4964 14.8696 7.04348V1.56522H18.7826V0H0ZM5.47826 1.56522H13.3043V3.91304H5.47826V1.56522ZM9.3913 10.9565C8.3535 10.9565 7.3582 10.5443 6.62436 9.81042C5.89053 9.07658 5.47826 8.08128 5.47826 7.04348V5.47826H13.3043V7.04348C13.3043 8.08128 12.8921 9.07658 12.1582 9.81042C11.4244 10.5443 10.4291 10.9565 9.3913 10.9565Z" fill="#F38218"/>
</svg>
