<svg width="20" height="20" viewBox="0 0 20 20" fill="none" xmlns="http://www.w3.org/2000/svg">
<path d="M18.3333 20H16.6667V17.8571C16.6653 16.9103 16.2259 16.0025 15.4448 15.333C14.6637 14.6635 13.6047 14.2869 12.5 14.2857H7.5C6.39534 14.2869 5.3363 14.6635 4.55518 15.333C3.77407 16.0025 3.33466 16.9103 3.33333 17.8571V20H1.66667V17.8571C1.66843 16.5315 2.28358 15.2606 3.37716 14.3233C4.47074 13.3859 5.95345 12.8587 7.5 12.8571H12.5C14.0466 12.8587 15.5293 13.3859 16.6228 14.3233C17.7164 15.2606 18.3316 16.5315 18.3333 17.8571V20ZM0.833333 2.85715C0.61232 2.85715 0.400358 2.9324 0.244078 3.06636C0.0877975 3.20031 0 3.38199 0 3.57143V10H1.66667V3.57143C1.66667 3.38199 1.57887 3.20031 1.42259 3.06636C1.26631 2.9324 1.05435 2.85715 0.833333 2.85715Z" fill="#F38218"/>
<path d="M0 0V1.42857H4.16667V6.42857C4.16667 7.75465 4.78125 9.02642 5.87521 9.96411C6.96917 10.9018 8.4529 11.4286 10 11.4286C11.5471 11.4286 13.0308 10.9018 14.1248 9.96411C15.2188 9.02642 15.8333 7.75465 15.8333 6.42857V1.42857H20V0H0ZM5.83333 1.42857H14.1667V3.57143H5.83333V1.42857ZM10 10C8.89493 10 7.83512 9.62373 7.05372 8.95395C6.27232 8.28418 5.83333 7.37577 5.83333 6.42857V5H14.1667V6.42857C14.1667 7.37577 13.7277 8.28418 12.9463 8.95395C12.1649 9.62373 11.1051 10 10 10Z" fill="#F38218"/>
</svg>
