<svg width="21" height="19" viewBox="0 0 21 19" fill="none" xmlns="http://www.w3.org/2000/svg">
<path d="M18.6818 13.8182V6.04545H5.95455V13.8182H18.6818ZM18.6818 1.72727C19.164 1.72727 19.6265 1.90925 19.9675 2.23318C20.3084 2.55711 20.5 2.99644 20.5 3.45455V13.8182C20.5 14.2763 20.3084 14.7156 19.9675 15.0395C19.6265 15.3635 19.164 15.5455 18.6818 15.5455H5.95455C5.47233 15.5455 5.00987 15.3635 4.6689 15.0395C4.32792 14.7156 4.13636 14.2763 4.13636 13.8182V3.45455C4.13636 2.99644 4.32792 2.55711 4.6689 2.23318C5.00987 1.90925 5.47233 1.72727 5.95455 1.72727H6.86364V0H8.68182V1.72727H15.9545V0H17.7727V1.72727H18.6818ZM15.5273 8.68818L11.4909 12.5227L9.05455 10.2082L10.0182 9.29273L11.4909 10.6918L14.5636 7.77273L15.5273 8.68818ZM2.31818 17.2727H15.0455V19H2.31818C1.83597 19 1.37351 18.818 1.03253 18.4941C0.691558 18.1702 0.5 17.7308 0.5 17.2727V6.90909H2.31818V17.2727Z" fill="#F38218"/>
</svg>
