<svg width="33" height="31" viewBox="0 0 33 31" fill="none" xmlns="http://www.w3.org/2000/svg">
<path d="M30 22.5455V9.86364H9V22.5455H30ZM30 2.81818C30.7957 2.81818 31.5587 3.1151 32.1213 3.64361C32.6839 4.17212 33 4.88894 33 5.63636V22.5455C33 23.2929 32.6839 24.0097 32.1213 24.5382C31.5587 25.0667 30.7957 25.3636 30 25.3636H9C8.20435 25.3636 7.44129 25.0667 6.87868 24.5382C6.31607 24.0097 6 23.2929 6 22.5455V5.63636C6 4.88894 6.31607 4.17212 6.87868 3.64361C7.44129 3.1151 8.20435 2.81818 9 2.81818H10.5V0H13.5V2.81818H25.5V0H28.5V2.81818H30ZM24.795 14.1755L18.135 20.4318L14.115 16.6555L15.705 15.1618L18.135 17.4445L23.205 12.6818L24.795 14.1755ZM3 28.1818H24V31H3C2.20435 31 1.44129 30.7031 0.87868 30.1746C0.316071 29.6461 0 28.9292 0 28.1818V11.2727H3V28.1818Z" fill="#7B8D9E"/>
</svg>
