<svg width="21" height="21" viewBox="0 0 21 21" fill="none" xmlns="http://www.w3.org/2000/svg">
<path d="M13.11 18.0702L15 16.7368L16.89 18.0877L16.395 15.5614L18.06 13.8772L15.87 13.6491L15 11.2632L14.13 13.6316L11.94 13.8596L13.605 15.5614L13.11 18.0702ZM11.295 21L12.27 16.0702L9 12.7544L13.32 12.3158L15 7.66666L16.68 12.3158L21 12.7544L17.73 16.0702L18.705 21L15 18.386L11.295 21Z" fill="#F38218"/>
<path d="M8.99995 7.66668C10.5464 7.66668 11.8 6.17429 11.8 4.33334C11.8 2.49239 10.5464 1 8.99995 1C7.45355 1 6.19995 2.49239 6.19995 4.33334C6.19995 6.17429 7.45355 7.66668 8.99995 7.66668Z" stroke="#F38218" stroke-width="2" stroke-linecap="round" stroke-linejoin="round"/>
<path d="M1 18.619C1 14.4109 4.2236 11 8.2 11" stroke="#F38218" stroke-width="2" stroke-linecap="round" stroke-linejoin="round"/>
</svg>
