<svg width="27" height="23" viewBox="0 0 27 23" fill="none" xmlns="http://www.w3.org/2000/svg">
<path d="M16.1638 18.9548L18.5304 17.5524L20.897 18.9733L20.2772 16.316L22.3621 14.5445L19.6198 14.3046L18.5304 11.795L17.441 14.2862L14.6988 14.5261L16.7836 16.316L16.1638 18.9548ZM13.8911 22.0365L15.112 16.8512L11.0174 13.3635L16.4268 12.9022L18.5304 8.01215L20.6341 12.9022L26.0435 13.3635L21.9489 16.8512L23.1697 22.0365L18.5304 19.287L13.8911 22.0365Z" fill="#F38218"/>
<path d="M11.0174 8.01217C12.9538 8.01217 14.5235 6.44245 14.5235 4.50609C14.5235 2.56973 12.9538 1 11.0174 1C9.08104 1 7.51131 2.56973 7.51131 4.50609C7.51131 6.44245 9.08104 8.01217 11.0174 8.01217Z" stroke="#F38218" stroke-width="2" stroke-linecap="round" stroke-linejoin="round"/>
<path d="M1 19.5321C1 15.1059 5.03651 11.5182 10.0157 11.5182" stroke="#F38218" stroke-width="2" stroke-linecap="round" stroke-linejoin="round"/>
</svg>
