<svg width="33" height="33" viewBox="0 0 33 33" fill="none" xmlns="http://www.w3.org/2000/svg">
<path fill-rule="evenodd" clip-rule="evenodd" d="M16.5 1.22379C16.6867 1.22379 17.1178 1.33412 17.7476 2.01476C18.362 2.67673 19.0104 3.7257 19.5994 5.14808C19.9779 6.05956 20.3174 7.09155 20.6059 8.22369C17.876 7.94024 15.124 7.94024 12.3941 8.22369C12.6826 7.09155 13.0221 6.05956 13.4006 5.14808C13.9896 3.7257 14.638 2.67673 15.2507 2.01306C15.8822 1.33412 16.3116 1.22379 16.5 1.22379ZM11.7219 11.7219C13.3059 11.5113 14.9021 11.4063 16.5 11.4079C18.1719 11.4079 19.7759 11.52 21.2781 11.7219C21.48 13.2241 21.5921 14.8281 21.5921 16.5C21.5921 18.1719 21.48 19.7759 21.2781 21.2781C19.6941 21.4888 18.0979 21.5937 16.5 21.5921C14.8281 21.5921 13.2241 21.48 11.7219 21.2781C11.5113 19.6941 11.4063 18.0979 11.4079 16.5C11.4079 14.8281 11.52 13.2241 11.7219 11.7219ZM8.22539 20.6059C7.9419 17.876 7.9419 15.124 8.22539 12.3941C7.09155 12.6826 6.05786 13.0221 5.14808 13.4006C3.7257 13.9896 2.67673 14.638 2.01306 15.2507C1.33412 15.8822 1.22379 16.3116 1.22379 16.5C1.22379 16.6867 1.33412 17.1178 2.01306 17.7476C2.67673 18.362 3.7257 19.0104 5.14808 19.5994C6.1481 20.0074 7.1776 20.3438 8.22539 20.6059ZM12.3941 24.7763C15.124 25.0599 17.876 25.0599 20.6059 24.7763C20.3174 25.9084 19.9779 26.9421 19.5994 27.8519C19.0104 29.2743 18.362 30.3233 17.7493 30.9869C17.1178 31.6659 16.6884 31.7762 16.5 31.7762C16.3133 31.7762 15.8822 31.6659 15.2524 30.9869C14.638 30.3233 13.9896 29.2743 13.4006 27.8519C12.9926 26.8519 12.6562 25.8241 12.3941 24.7763ZM24.7746 20.6059C25.0582 17.876 25.0582 15.124 24.7746 12.3941C25.823 12.6561 26.8514 12.9924 27.8519 13.4006C29.2743 13.9896 30.3233 14.638 30.9869 15.2507C31.6659 15.8822 31.7762 16.3116 31.7762 16.5C31.7762 16.6867 31.6659 17.1178 30.9869 17.7476C30.3233 18.362 29.2743 19.0104 27.8519 19.5994C26.9404 19.9779 25.9084 20.3174 24.7746 20.6059ZM24.2179 8.78212C23.8783 7.09492 23.3822 5.44304 22.7361 3.84791C22.1132 2.34744 21.3646 1.02181 20.4973 0C23.5275 0.736807 26.2968 2.29293 28.5019 4.49808C30.7071 6.70324 32.2632 9.47246 33 12.5027C31.9782 11.6371 30.6526 10.8868 29.1521 10.2639C27.557 9.61776 25.9051 9.12168 24.2179 8.78212ZM24.2179 24.2179C23.8783 25.9051 23.3822 27.557 22.7361 29.1521C22.1132 30.6526 21.3646 31.9782 20.4973 33C23.5275 32.2632 26.2968 30.7071 28.5019 28.5019C30.7071 26.2968 32.2632 23.5275 33 20.4973C31.9782 21.3629 30.6526 22.1132 29.1521 22.7361C27.7076 23.3353 26.0425 23.8394 24.2179 24.2179ZM12.5027 33C11.6371 31.9782 10.8868 30.6526 10.2639 29.1521C9.61772 27.557 9.12164 25.9051 8.78212 24.2179C7.0949 23.8784 5.44302 23.3823 3.84791 22.7361C2.34744 22.1132 1.02011 21.3646 0 20.4973C0.736807 23.5275 2.29293 26.2968 4.49808 28.5019C6.70324 30.7071 9.47246 32.2632 12.5027 33ZM8.78212 8.78212C9.16063 6.95746 9.66475 5.29236 10.2639 3.84791C10.8868 2.34744 11.6354 1.02181 12.5027 0C9.47246 0.736807 6.70324 2.29293 4.49808 4.49808C2.29293 6.70324 0.736807 9.47246 0 12.5027C1.02011 11.6371 2.34744 10.8868 3.84791 10.2639C5.44311 9.61796 7.09497 9.12189 8.78212 8.78212Z" fill="#F38218"/>
</svg>
