<svg width="21" height="21" viewBox="0 0 21 21" fill="none" xmlns="http://www.w3.org/2000/svg">
<path fill-rule="evenodd" clip-rule="evenodd" d="M10.5 1.24169C10.6132 1.24169 10.8744 1.30856 11.2561 1.72107C11.6285 2.12226 12.0214 2.758 12.3784 3.62005C12.6078 4.17246 12.8135 4.79791 12.9884 5.48406C11.3339 5.31227 9.66608 5.31227 8.01157 5.48406C8.18645 4.79791 8.39219 4.17246 8.62159 3.62005C8.97855 2.758 9.37151 2.12226 9.74288 1.72004C10.1256 1.30856 10.3858 1.24169 10.5 1.24169ZM7.60421 7.60421C8.56417 7.47652 9.53158 7.41294 10.5 7.4139C11.5133 7.4139 12.4854 7.48179 13.3958 7.60421C13.5182 8.51461 13.5861 9.48673 13.5861 10.5C13.5861 11.5133 13.5182 12.4854 13.3958 13.3958C12.4358 13.5235 11.4684 13.5871 10.5 13.5861C9.48673 13.5861 8.51461 13.5182 7.60421 13.3958C7.47652 12.4358 7.41294 11.4684 7.4139 10.5C7.4139 9.48673 7.48179 8.51461 7.60421 7.60421ZM5.48508 12.9884C5.31327 11.3339 5.31327 9.66608 5.48508 8.01157C4.79791 8.18645 4.17143 8.39219 3.62005 8.62159C2.758 8.97855 2.12226 9.37151 1.72004 9.74288C1.30856 10.1256 1.24169 10.3858 1.24169 10.5C1.24169 10.6132 1.30856 10.8744 1.72004 11.2561C2.12226 11.6285 2.758 12.0214 3.62005 12.3784C4.22612 12.6257 4.85006 12.8296 5.48508 12.9884ZM8.01157 15.5159C9.66607 15.6878 11.3339 15.6878 12.9884 15.5159C12.8135 16.2021 12.6078 16.8286 12.3784 17.38C12.0214 18.242 11.6285 18.8777 11.2571 19.28C10.8744 19.6914 10.6142 19.7583 10.5 19.7583C10.3868 19.7583 10.1256 19.6914 9.7439 19.28C9.37151 18.8777 8.97855 18.242 8.62159 17.38C8.37428 16.7739 8.17043 16.151 8.01157 15.5159ZM15.5149 12.9884C15.6868 11.3339 15.6868 9.66607 15.5149 8.01157C16.1503 8.17035 16.7736 8.37421 17.38 8.62159C18.242 8.97855 18.8777 9.37151 19.28 9.74288C19.6914 10.1256 19.7583 10.3858 19.7583 10.5C19.7583 10.6132 19.6914 10.8744 19.28 11.2561C18.8777 11.6285 18.242 12.0214 17.38 12.3784C16.8275 12.6078 16.2021 12.8135 15.5149 12.9884ZM15.1775 5.8225C14.9717 4.79995 14.671 3.79881 14.2794 2.83206C13.9019 1.92269 13.4483 1.11928 12.9226 0.5C14.7591 0.94655 16.4374 1.88965 17.7739 3.22611C19.1103 4.56257 20.0535 6.24088 20.5 8.07741C19.8807 7.55277 19.0773 7.09809 18.1679 6.72055C17.2012 6.32894 16.2 6.02829 15.1775 5.8225ZM15.1775 15.1775C14.9717 16.2 14.6711 17.2012 14.2794 18.1679C13.9019 19.0773 13.4483 19.8807 12.9226 20.5C14.7591 20.0535 16.4374 19.1103 17.7739 17.7739C19.1103 16.4374 20.0535 14.7591 20.5 12.9226C19.8807 13.4472 19.0773 13.9019 18.1679 14.2794C17.2925 14.6426 16.2834 14.9481 15.1775 15.1775ZM8.07741 20.5C7.55277 19.8807 7.09809 19.0773 6.72055 18.1679C6.32892 17.2012 6.02827 16.2001 5.8225 15.1775C4.79994 14.9717 3.7988 14.6711 2.83206 14.2794C1.92269 13.9019 1.11825 13.4483 0.5 12.9226C0.94655 14.7591 1.88965 16.4374 3.22611 17.7739C4.56257 19.1103 6.24088 20.0535 8.07741 20.5ZM5.8225 5.8225C6.0519 4.71664 6.35742 3.70749 6.72055 2.83206C7.09809 1.92269 7.55174 1.11928 8.07741 0.5C6.24088 0.94655 4.56257 1.88965 3.22611 3.22611C1.88965 4.56257 0.94655 6.24088 0.5 8.07741C1.11825 7.55277 1.92269 7.09809 2.83206 6.72055C3.79885 6.32907 4.79998 6.02842 5.8225 5.8225Z" fill="#F38218"/>
</svg>
