<svg width="25" height="21" viewBox="0 0 25 21" fill="none" xmlns="http://www.w3.org/2000/svg">
<path d="M13.0916 5.18042C12.748 5.18042 12.4184 5.31693 12.1754 5.55992C11.9324 5.80291 11.7959 6.13247 11.7959 6.47611C11.7959 6.81975 11.9324 7.14931 12.1754 7.3923C12.4184 7.63529 12.748 7.7718 13.0916 7.7718H18.2744C18.618 7.7718 18.9476 7.63529 19.1905 7.3923C19.4335 7.14931 19.57 6.81975 19.57 6.47611C19.57 6.13247 19.4335 5.80291 19.1905 5.55992C18.9476 5.31693 18.618 5.18042 18.2744 5.18042H13.0916ZM13.0916 16.8416C12.748 16.8416 12.4184 16.9781 12.1754 17.2211C11.9324 17.4641 11.7959 17.7937 11.7959 18.1373C11.7959 18.481 11.9324 18.8105 12.1754 19.0535C12.4184 19.2965 12.748 19.433 13.0916 19.433H18.2744C18.618 19.433 18.9476 19.2965 19.1905 19.0535C19.4335 18.8105 19.57 18.481 19.57 18.1373C19.57 17.7937 19.4335 17.4641 19.1905 17.2211C18.9476 16.9781 18.618 16.8416 18.2744 16.8416H13.0916Z" fill="#F38218"/>
<path d="M13.0916 1.29321C12.748 1.29321 12.4184 1.42972 12.1754 1.67271C11.9324 1.9157 11.7959 2.24526 11.7959 2.5889C11.7959 2.93254 11.9324 3.26211 12.1754 3.50509C12.4184 3.74808 12.748 3.88459 13.0916 3.88459H23.4571C23.8008 3.88459 24.1303 3.74808 24.3733 3.50509C24.6163 3.26211 24.7528 2.93254 24.7528 2.5889C24.7528 2.24526 24.6163 1.9157 24.3733 1.67271C24.1303 1.42972 23.8008 1.29321 23.4571 1.29321H13.0916ZM13.0916 12.9544C12.748 12.9544 12.4184 13.0909 12.1754 13.3339C11.9324 13.5769 11.7959 13.9065 11.7959 14.2501C11.7959 14.5938 11.9324 14.9233 12.1754 15.1663C12.4184 15.4093 12.748 15.5458 13.0916 15.5458H23.4571C23.8008 15.5458 24.1303 15.4093 24.3733 15.1663C24.6163 14.9233 24.7528 14.5938 24.7528 14.2501C24.7528 13.9065 24.6163 13.5769 24.3733 13.3339C24.1303 13.0909 23.8008 12.9544 23.4571 12.9544H13.0916Z" fill="#F38218"/>
<path d="M1.29569 0C0.952052 0 0.622488 0.13651 0.379499 0.379499C0.13651 0.622488 0 0.952052 0 1.29569V7.77414C0 8.11778 0.13651 8.44735 0.379499 8.69033C0.622488 8.93332 0.952052 9.06983 1.29569 9.06983H7.77414C8.11778 9.06983 8.44734 8.93332 8.69033 8.69033C8.93332 8.44735 9.06983 8.11778 9.06983 7.77414V1.29569C9.06983 0.952052 8.93332 0.622488 8.69033 0.379499C8.44734 0.13651 8.11778 0 7.77414 0H1.29569ZM1.29569 11.656C0.952052 11.656 0.622488 11.7925 0.379499 12.0355C0.13651 12.2785 0 12.6081 0 12.9517V19.4302C0 19.7738 0.13651 20.1034 0.379499 20.3464C0.622488 20.5894 0.952052 20.7259 1.29569 20.7259H7.77414C8.11778 20.7259 8.44734 20.5894 8.69033 20.3464C8.93332 20.1034 9.06983 19.7738 9.06983 19.4302V12.9517C9.06983 12.6081 8.93332 12.2785 8.69033 12.0355C8.44734 11.7925 8.11778 11.656 7.77414 11.656H1.29569Z" fill="#F38218"/>
</svg>
