<svg width="34" height="29" viewBox="0 0 34 29" fill="none" xmlns="http://www.w3.org/2000/svg">
<path d="M17.8128 7.04877C17.3453 7.04877 16.8968 7.23451 16.5662 7.56512C16.2356 7.89574 16.0499 8.34415 16.0499 8.81172C16.0499 9.27928 16.2356 9.72769 16.5662 10.0583C16.8968 10.3889 17.3453 10.5747 17.8128 10.5747H24.8646C25.3322 10.5747 25.7806 10.3889 26.1112 10.0583C26.4418 9.72769 26.6276 9.27928 26.6276 8.81172C26.6276 8.34415 26.4418 7.89574 26.1112 7.56512C25.7806 7.23451 25.3322 7.04877 24.8646 7.04877H17.8128ZM17.8128 22.9153C17.3453 22.9153 16.8968 23.101 16.5662 23.4317C16.2356 23.7623 16.0499 24.2107 16.0499 24.6783C16.0499 25.1458 16.2356 25.5942 16.5662 25.9249C16.8968 26.2555 17.3453 26.4412 17.8128 26.4412H24.8646C25.3322 26.4412 25.7806 26.2555 26.1112 25.9249C26.4418 25.5942 26.6276 25.1458 26.6276 24.6783C26.6276 24.2107 26.4418 23.7623 26.1112 23.4317C25.7806 23.101 25.3322 22.9153 24.8646 22.9153H17.8128Z" fill="#7B8D9E"/>
<path d="M17.8128 1.75958C17.3453 1.75958 16.8968 1.94532 16.5662 2.27594C16.2356 2.60656 16.0499 3.05497 16.0499 3.52253C16.0499 3.9901 16.2356 4.43851 16.5662 4.76913C16.8968 5.09974 17.3453 5.28548 17.8128 5.28548H31.9164C32.384 5.28548 32.8324 5.09974 33.163 4.76913C33.4936 4.43851 33.6794 3.9901 33.6794 3.52253C33.6794 3.05497 33.4936 2.60656 33.163 2.27594C32.8324 1.94532 32.384 1.75958 31.9164 1.75958H17.8128ZM17.8128 17.6261C17.3453 17.6261 16.8968 17.8119 16.5662 18.1425C16.2356 18.4731 16.0499 18.9215 16.0499 19.3891C16.0499 19.8566 16.2356 20.3051 16.5662 20.6357C16.8968 20.9663 17.3453 21.152 17.8128 21.152H31.9164C32.384 21.152 32.8324 20.9663 33.163 20.6357C33.4936 20.3051 33.6794 19.8566 33.6794 19.3891C33.6794 18.9215 33.4936 18.4731 33.163 18.1425C32.8324 17.8119 32.384 17.6261 31.9164 17.6261H17.8128Z" fill="#7B8D9E"/>
<path d="M1.76295 0C1.29539 0 0.846973 0.185739 0.516356 0.516356C0.185739 0.846973 0 1.29539 0 1.76295V10.5777C0 11.0453 0.185739 11.4937 0.516356 11.8243C0.846973 12.1549 1.29539 12.3406 1.76295 12.3406H10.5777C11.0453 12.3406 11.4937 12.1549 11.8243 11.8243C12.1549 11.4937 12.3406 11.0453 12.3406 10.5777V1.76295C12.3406 1.29539 12.1549 0.846973 11.8243 0.516356C11.4937 0.185739 11.0453 0 10.5777 0H1.76295ZM1.76295 15.8595C1.29539 15.8595 0.846973 16.0452 0.516356 16.3759C0.185739 16.7065 0 17.1549 0 17.6224V26.4372C0 26.9048 0.185739 27.3532 0.516356 27.6838C0.846973 28.0144 1.29539 28.2001 1.76295 28.2001H10.5777C11.0453 28.2001 11.4937 28.0144 11.8243 27.6838C12.1549 27.3532 12.3406 26.9048 12.3406 26.4372V17.6224C12.3406 17.1549 12.1549 16.7065 11.8243 16.3759C11.4937 16.0452 11.0453 15.8595 10.5777 15.8595H1.76295Z" fill="#7B8D9E"/>
</svg>
