<svg width="66" height="62" viewBox="0 0 66 62" fill="none" xmlns="http://www.w3.org/2000/svg">
<path d="M41.9559 1.26272C41.9559 0.927827 41.8229 0.606649 41.5861 0.369842C41.3493 0.133036 41.0281 0 40.6932 0C40.3583 0 40.0371 0.133036 39.8003 0.369842C39.5635 0.606649 39.4305 0.927827 39.4305 1.26272V2.52544C39.4305 2.86034 39.5635 3.18151 39.8003 3.41832C40.0371 3.65513 40.3583 3.78816 40.6932 3.78816C41.0281 3.78816 41.3493 3.65513 41.5861 3.41832C41.8229 3.18151 41.9559 2.86034 41.9559 2.52544V1.26272ZM47.8364 4.74404C48.0664 4.50589 48.1937 4.18693 48.1908 3.85584C48.188 3.52476 48.0552 3.20806 47.821 2.97394C47.5869 2.73982 47.2702 2.60702 46.9391 2.60414C46.608 2.60127 46.2891 2.72854 46.0509 2.95856L45.1582 3.8513C44.9282 4.08945 44.8009 4.40842 44.8038 4.7395C44.8066 5.07058 44.9394 5.38729 45.1736 5.62141C45.4077 5.85552 45.7244 5.98832 46.0555 5.9912C46.3866 5.99408 46.7055 5.8668 46.9437 5.63679L47.8364 4.74404ZM50.795 10.1018C50.795 10.4367 50.6619 10.7578 50.4251 10.9946C50.1883 11.2315 49.8671 11.3645 49.5322 11.3645H48.2695C47.9346 11.3645 47.6135 11.2315 47.3766 10.9946C47.1398 10.7578 47.0068 10.4367 47.0068 10.1018C47.0068 9.76688 47.1398 9.4457 47.3766 9.20889C47.6135 8.97208 47.9346 8.83905 48.2695 8.83905H49.5322C49.8671 8.83905 50.1883 8.97208 50.4251 9.20889C50.6619 9.4457 50.795 9.76688 50.795 10.1018ZM34.4427 5.63679C34.5592 5.75739 34.6985 5.85359 34.8526 5.91976C35.0067 5.98594 35.1724 6.02078 35.34 6.02223C35.5077 6.02369 35.674 5.99174 35.8291 5.92825C35.9843 5.86476 36.1253 5.771 36.2439 5.65244C36.3624 5.53388 36.4562 5.39289 36.5197 5.23771C36.5832 5.08253 36.6151 4.91625 36.6137 4.74859C36.6122 4.58092 36.5774 4.41523 36.5112 4.26117C36.445 4.10712 36.3488 3.96778 36.2282 3.8513L35.3355 2.95856C35.0973 2.72854 34.7784 2.60127 34.4473 2.60414C34.1162 2.60702 33.7995 2.73982 33.5654 2.97394C33.3312 3.20806 33.1985 3.52476 33.1956 3.85584C33.1927 4.18693 33.32 4.50589 33.55 4.74404L34.4427 5.63679ZM34.3796 10.1018C34.3796 10.4367 34.2466 10.7578 34.0098 10.9946C33.7729 11.2315 33.4518 11.3645 33.1169 11.3645H31.8542C31.5193 11.3645 31.1981 11.2315 30.9613 10.9946C30.7245 10.7578 30.5914 10.4367 30.5914 10.1018C30.5914 9.76688 30.7245 9.4457 30.9613 9.20889C31.1981 8.97208 31.5193 8.83905 31.8542 8.83905H33.1169C33.4518 8.83905 33.7729 8.97208 34.0098 9.20889C34.2466 9.4457 34.3796 9.76688 34.3796 10.1018ZM38.1678 17.6781V16.4154H43.2186V17.6781C43.2186 18.3479 42.9526 18.9902 42.479 19.4639C42.0053 19.9375 41.363 20.2035 40.6932 20.2035C40.0234 20.2035 39.3811 19.9375 38.9074 19.4639C38.4338 18.9902 38.1678 18.3479 38.1678 17.6781ZM43.2186 15.1527C43.2376 14.7233 43.4813 14.3369 43.821 14.068C44.6451 13.418 45.2463 12.5274 45.541 11.52C45.8356 10.5126 45.8091 9.43841 45.4651 8.44676C45.1212 7.4551 44.4768 6.59525 43.6216 5.98671C42.7664 5.37816 41.7428 5.05117 40.6932 5.05117C39.6436 5.05117 38.62 5.37816 37.7648 5.98671C36.9096 6.59525 36.2652 7.4551 35.9213 8.44676C35.5773 9.43841 35.5508 10.5126 35.8454 11.52C36.1401 12.5274 36.7413 13.418 37.5654 14.068C37.9064 14.3369 38.1488 14.7233 38.1665 15.1527H43.2199H43.2186Z" fill="#7B8D9E"/>
<path d="M49.3869 26.5257C48.9554 26.2043 48.4531 25.9836 47.9192 25.8807C47.3852 25.7778 46.8339 25.7954 46.3081 25.9322L40.2433 27.2819C40.3844 26.705 40.3888 26.1046 40.2561 25.5258C40.1233 24.947 39.857 24.4048 39.477 23.9398C39.097 23.4748 38.6132 23.0991 38.0618 22.8408C37.5105 22.5826 36.9059 22.4484 36.2934 22.4485H29.037C28.4276 22.447 27.824 22.5624 27.261 22.7881C26.6979 23.0137 26.1867 23.3451 25.7568 23.7631L22.4779 26.9382H18.3192C17.7041 26.9382 17.1142 27.1747 16.6793 27.5957C16.2443 28.0167 16 28.5876 16 29.183V34.7951C16 35.3905 16.2443 35.9614 16.6793 36.3824C17.1142 36.8034 17.7041 37.0399 18.3192 37.0399H33.3943C33.4891 37.04 33.5836 37.0287 33.6755 37.0063L42.9525 34.7614C43.0116 34.7478 43.0693 34.729 43.125 34.7053L48.7593 32.3847L48.823 32.3566C49.3645 32.0947 49.8282 31.7037 50.1705 31.2204C50.5127 30.7371 50.7222 30.1774 50.7791 29.5941C50.8361 29.0108 50.7388 28.4231 50.4962 27.8862C50.2536 27.3494 49.8739 26.8812 49.3927 26.5257H49.3869ZM18.3192 29.183H21.7981V34.7951H18.3192V29.183ZM47.8069 30.3349L42.2987 32.605L33.2493 34.7951H24.1173V28.525L27.3976 25.3514C27.6122 25.142 27.8676 24.976 28.1491 24.863C28.4305 24.7501 28.7324 24.6924 29.037 24.6933H36.2934C36.7547 24.6933 37.1971 24.8707 37.5233 25.1865C37.8495 25.5022 38.0328 25.9304 38.0328 26.377C38.0328 26.8235 37.8495 27.2517 37.5233 27.5675C37.1971 27.8832 36.7547 28.0606 36.2934 28.0606H32.2347C31.9271 28.0606 31.6322 28.1788 31.4147 28.3893C31.1972 28.5998 31.0751 28.8853 31.0751 29.183C31.0751 29.4807 31.1972 29.7662 31.4147 29.9767C31.6322 30.1872 31.9271 30.3054 32.2347 30.3054H36.8732C36.9604 30.3052 37.0474 30.2958 37.1326 30.2774L46.8444 28.1153L46.8894 28.1041C47.1859 28.0244 47.5023 28.0537 47.7778 28.1863C48.0533 28.3189 48.2684 28.5454 48.3818 28.8222C48.4951 29.0991 48.4987 29.4068 48.3917 29.686C48.2848 29.9653 48.075 30.1964 47.8026 30.3349H47.8069Z" fill="#7B8D9E"/>
<path d="M4.87725 58.108C4.09325 58.108 3.40925 57.932 2.82525 57.58C2.24925 57.22 1.80125 56.716 1.48125 56.068C1.16925 55.42 1.01325 54.652 1.01325 53.764C1.01325 52.876 1.16925 52.108 1.48125 51.46C1.79325 50.812 2.23725 50.312 2.81325 49.96C3.39725 49.608 4.08525 49.432 4.87725 49.432C5.67725 49.432 6.36525 49.608 6.94125 49.96C7.52525 50.312 7.97325 50.812 8.28525 51.46C8.60525 52.1 8.76525 52.864 8.76525 53.752C8.76525 54.64 8.60525 55.412 8.28525 56.068C7.96525 56.716 7.51325 57.22 6.92925 57.58C6.35325 57.932 5.66925 58.108 4.87725 58.108ZM4.87725 57.232C5.78125 57.232 6.48125 56.928 6.97725 56.32C7.47325 55.712 7.72125 54.86 7.72125 53.764C7.72125 52.668 7.47325 51.82 6.97725 51.22C6.48125 50.612 5.78125 50.308 4.87725 50.308C3.98925 50.308 3.29725 50.612 2.80125 51.22C2.30525 51.82 2.05725 52.668 2.05725 53.764C2.05725 54.852 2.30525 55.704 2.80125 56.32C3.29725 56.928 3.98925 57.232 4.87725 57.232ZM10.3925 60.16V52.168H11.3405V53.212C11.5165 52.852 11.7765 52.572 12.1205 52.372C12.4725 52.164 12.8805 52.06 13.3445 52.06C13.8645 52.06 14.3165 52.184 14.7005 52.432C15.0925 52.672 15.3925 53.02 15.6005 53.476C15.8165 53.924 15.9245 54.46 15.9245 55.084C15.9245 55.7 15.8165 56.236 15.6005 56.692C15.3925 57.14 15.0925 57.488 14.7005 57.736C14.3165 57.984 13.8645 58.108 13.3445 58.108C12.8965 58.108 12.4965 58.008 12.1445 57.808C11.7925 57.608 11.5325 57.332 11.3645 56.98V60.16H10.3925ZM13.1405 57.328C13.6845 57.328 14.1205 57.136 14.4485 56.752C14.7765 56.36 14.9405 55.804 14.9405 55.084C14.9405 54.356 14.7765 53.8 14.4485 53.416C14.1205 53.032 13.6845 52.84 13.1405 52.84C12.5965 52.84 12.1605 53.032 11.8325 53.416C11.5045 53.8 11.3405 54.356 11.3405 55.084C11.3405 55.804 11.5045 56.36 11.8325 56.752C12.1605 57.136 12.5965 57.328 13.1405 57.328ZM17.3886 60.16V52.168H18.3366V53.212C18.5126 52.852 18.7726 52.572 19.1166 52.372C19.4686 52.164 19.8766 52.06 20.3406 52.06C20.8606 52.06 21.3126 52.184 21.6966 52.432C22.0886 52.672 22.3886 53.02 22.5966 53.476C22.8126 53.924 22.9206 54.46 22.9206 55.084C22.9206 55.7 22.8126 56.236 22.5966 56.692C22.3886 57.14 22.0886 57.488 21.6966 57.736C21.3126 57.984 20.8606 58.108 20.3406 58.108C19.8926 58.108 19.4926 58.008 19.1406 57.808C18.7886 57.608 18.5286 57.332 18.3606 56.98V60.16H17.3886ZM20.1366 57.328C20.6806 57.328 21.1166 57.136 21.4446 56.752C21.7726 56.36 21.9366 55.804 21.9366 55.084C21.9366 54.356 21.7726 53.8 21.4446 53.416C21.1166 53.032 20.6806 52.84 20.1366 52.84C19.5926 52.84 19.1566 53.032 18.8286 53.416C18.5006 53.8 18.3366 54.356 18.3366 55.084C18.3366 55.804 18.5006 56.36 18.8286 56.752C19.1566 57.136 19.5926 57.328 20.1366 57.328ZM26.8087 58.108C26.2407 58.108 25.7487 57.984 25.3327 57.736C24.9167 57.488 24.5927 57.14 24.3607 56.692C24.1367 56.236 24.0247 55.7 24.0247 55.084C24.0247 54.468 24.1367 53.936 24.3607 53.488C24.5927 53.032 24.9167 52.68 25.3327 52.432C25.7487 52.184 26.2407 52.06 26.8087 52.06C27.3687 52.06 27.8567 52.184 28.2727 52.432C28.6967 52.68 29.0207 53.032 29.2447 53.488C29.4767 53.936 29.5927 54.468 29.5927 55.084C29.5927 55.7 29.4767 56.236 29.2447 56.692C29.0207 57.14 28.6967 57.488 28.2727 57.736C27.8567 57.984 27.3687 58.108 26.8087 58.108ZM26.8087 57.328C27.3527 57.328 27.7887 57.136 28.1167 56.752C28.4447 56.36 28.6087 55.804 28.6087 55.084C28.6087 54.356 28.4447 53.8 28.1167 53.416C27.7887 53.032 27.3527 52.84 26.8087 52.84C26.2567 52.84 25.8167 53.032 25.4887 53.416C25.1687 53.8 25.0087 54.356 25.0087 55.084C25.0087 55.804 25.1687 56.36 25.4887 56.752C25.8167 57.136 26.2567 57.328 26.8087 57.328ZM31.0526 58V52.168H32.0006V53.212C32.3126 52.508 32.9526 52.12 33.9206 52.048L34.2686 52.012L34.3406 52.852L33.7286 52.924C33.1766 52.972 32.7566 53.148 32.4686 53.452C32.1806 53.748 32.0366 54.156 32.0366 54.676V58H31.0526ZM38.0098 58.108C37.3218 58.108 36.8058 57.928 36.4618 57.568C36.1178 57.2 35.9458 56.672 35.9458 55.984V52.924H34.8058V52.168H35.9458V50.38H36.9178V52.168H38.7658V52.924H36.9178V55.888C36.9178 56.344 37.0138 56.692 37.2058 56.932C37.3978 57.164 37.7098 57.28 38.1418 57.28C38.2698 57.28 38.3978 57.264 38.5258 57.232C38.6538 57.2 38.7698 57.168 38.8738 57.136L39.0418 57.88C38.9378 57.936 38.7858 57.988 38.5858 58.036C38.3858 58.084 38.1938 58.108 38.0098 58.108ZM41.9291 58.108C40.5291 58.108 39.8291 57.336 39.8291 55.792V52.168H40.8011V55.78C40.8011 56.3 40.9051 56.684 41.1131 56.932C41.3291 57.18 41.6651 57.304 42.1211 57.304C42.6171 57.304 43.0211 57.14 43.3331 56.812C43.6451 56.476 43.8011 56.032 43.8011 55.48V52.168H44.7731V58H43.8251V57.016C43.6411 57.368 43.3811 57.64 43.0451 57.832C42.7171 58.016 42.3451 58.108 41.9291 58.108ZM46.5917 58V52.168H47.5397V53.164C47.7317 52.796 48.0037 52.52 48.3557 52.336C48.7077 52.152 49.1037 52.06 49.5437 52.06C50.9277 52.06 51.6197 52.828 51.6197 54.364V58H50.6477V54.424C50.6477 53.88 50.5397 53.484 50.3237 53.236C50.1157 52.98 49.7797 52.852 49.3157 52.852C48.7797 52.852 48.3517 53.02 48.0317 53.356C47.7197 53.684 47.5637 54.124 47.5637 54.676V58H46.5917ZM53.292 50.716V49.624H54.492V50.716H53.292ZM53.412 58V52.168H54.384V58H53.412ZM58.5411 58.108C57.8531 58.108 57.3371 57.928 56.9931 57.568C56.6491 57.2 56.4771 56.672 56.4771 55.984V52.924H55.3371V52.168H56.4771V50.38H57.4491V52.168H59.2971V52.924H57.4491V55.888C57.4491 56.344 57.5451 56.692 57.7371 56.932C57.9291 57.164 58.2411 57.28 58.6731 57.28C58.8011 57.28 58.9291 57.264 59.0571 57.232C59.1851 57.2 59.3011 57.168 59.4051 57.136L59.5731 57.88C59.4691 57.936 59.3171 57.988 59.1171 58.036C58.9171 58.084 58.7251 58.108 58.5411 58.108ZM61.1387 60.16L62.1347 57.904L59.6747 52.168H60.7307L62.6627 56.896L64.6067 52.168H65.6267L62.1587 60.16H61.1387Z" fill="#7B8D9E"/>
</svg>
