<svg width="27" height="16" viewBox="0 0 27 16" fill="none" xmlns="http://www.w3.org/2000/svg">
<path d="M0 2.66667C0 1.19583 1.21078 0 2.7 0H24.3C25.7892 0 27 1.19583 27 2.66667V13.3333C27 14.8042 25.7892 16 24.3 16H2.7C1.21078 16 0 14.8042 0 13.3333V2.66667ZM13.5 2.66667V13.3333H24.3V2.66667H13.5ZM7.52203 4.6625C7.38703 4.3625 7.08328 4.16667 6.75 4.16667C6.41672 4.16667 6.11297 4.3625 5.97797 4.6625L3.27797 10.6625C3.08812 11.0833 3.28219 11.575 3.70828 11.7625C4.13438 11.95 4.63219 11.7583 4.82203 11.3375L5.1975 10.5H8.3025L8.67797 11.3375C8.86781 11.7583 9.36563 11.9458 9.79172 11.7625C10.2178 11.5792 10.4077 11.0833 10.222 10.6625L7.52203 4.6625ZM6.75 7.05L7.55156 8.83333H5.94844L6.75 7.05ZM18.9 4.16667C19.3641 4.16667 19.7438 4.54167 19.7438 5V5.16667H22.275C22.7391 5.16667 23.1188 5.54167 23.1188 6C23.1188 6.45833 22.7391 6.83333 22.275 6.83333H22.1906L22.1231 7.02083C21.7477 8.0375 21.1781 8.9625 20.4525 9.74583C20.4905 9.77083 20.5284 9.79167 20.5664 9.8125L21.3637 10.2833C21.7645 10.5208 21.8911 11.0333 21.6548 11.425C21.4186 11.8167 20.8955 11.9458 20.4989 11.7125L19.7016 11.2417C19.5117 11.1292 19.3303 11.0125 19.1489 10.8875C18.7017 11.2 18.225 11.4708 17.7145 11.6958L17.5627 11.7625C17.1366 11.95 16.6387 11.7583 16.4489 11.3375C16.2591 10.9167 16.4531 10.425 16.8792 10.2375L17.0311 10.1708C17.3011 10.05 17.5627 9.91667 17.8116 9.7625L17.2969 9.25417C16.9678 8.92917 16.9678 8.4 17.2969 8.075C17.6259 7.75 18.1617 7.75 18.4908 8.075L19.1067 8.68333L19.1278 8.70417C19.6509 8.15833 20.077 7.525 20.385 6.82917H15.8625C15.3984 6.82917 15.0188 6.45417 15.0188 5.99583C15.0188 5.5375 15.3984 5.1625 15.8625 5.1625H18.0563V4.99583C18.0563 4.5375 18.4359 4.1625 18.9 4.1625V4.16667Z" fill="#F38218"/>
</svg>
