<svg width="20" height="20" viewBox="0 0 20 20" fill="none" xmlns="http://www.w3.org/2000/svg">
<path d="M0 3.33333C0 1.49479 0.896875 0 2 0H18C19.1031 0 20 1.49479 20 3.33333V16.6667C20 18.5052 19.1031 20 18 20H2C0.896875 20 0 18.5052 0 16.6667V3.33333ZM10 3.33333V16.6667H18V3.33333H10ZM5.57188 5.82813C5.47188 5.45313 5.24688 5.20833 5 5.20833C4.75313 5.20833 4.52812 5.45313 4.42812 5.82813L2.42812 13.3281C2.2875 13.8542 2.43125 14.4687 2.74688 14.7031C3.0625 14.9375 3.43125 14.6979 3.57188 14.1719L3.85 13.125H6.15L6.42812 14.1719C6.56875 14.6979 6.9375 14.9323 7.25313 14.7031C7.56875 14.474 7.70938 13.8542 7.57188 13.3281L5.57188 5.82813ZM5 8.8125L5.59375 11.0417H4.40625L5 8.8125ZM14 5.20833C14.3438 5.20833 14.625 5.67708 14.625 6.25V6.45833H16.5C16.8438 6.45833 17.125 6.92708 17.125 7.5C17.125 8.07292 16.8438 8.54167 16.5 8.54167H16.4375L16.3875 8.77604C16.1094 10.0469 15.6875 11.2031 15.15 12.1823C15.1781 12.2135 15.2063 12.2396 15.2344 12.2656L15.825 12.8542C16.1219 13.151 16.2156 13.7917 16.0406 14.2813C15.8656 14.7708 15.4781 14.9323 15.1844 14.6406L14.5938 14.0521C14.4531 13.9115 14.3187 13.7656 14.1844 13.6094C13.8531 14 13.5 14.3385 13.1219 14.6198L13.0094 14.7031C12.6937 14.9375 12.325 14.6979 12.1844 14.1719C12.0437 13.6458 12.1875 13.0313 12.5031 12.7969L12.6156 12.7135C12.8156 12.5625 13.0094 12.3958 13.1938 12.2031L12.8125 11.5677C12.5688 11.1615 12.5688 10.5 12.8125 10.0937C13.0563 9.6875 13.4531 9.6875 13.6969 10.0937L14.1531 10.8542L14.1688 10.8802C14.5563 10.1979 14.8719 9.40625 15.1 8.53646H11.75C11.4062 8.53646 11.125 8.06771 11.125 7.49479C11.125 6.92187 11.4062 6.45313 11.75 6.45313H13.375V6.24479C13.375 5.67187 13.6563 5.20312 14 5.20312V5.20833Z" fill="#F38218"/>
</svg>
