<svg width="328" height="328" viewBox="0 0 328 328" fill="none" xmlns="http://www.w3.org/2000/svg">
<path d="M64.1568 182.106H29.3888V312.978H64.1568V182.106Z" fill="#F5F5F5"/>
<path d="M252.494 225.664H217.726V312.256H252.494V225.664Z" fill="#F5F5F5"/>
<path d="M305.565 157.571H270.797V312.256H305.565V157.571Z" fill="#F5F5F5"/>
<path d="M193.586 163.213H158.818V312.256H193.586V163.213Z" fill="#F5F5F5"/>
<path d="M123.918 120.966H89.1504V312.256H123.918V120.966Z" fill="#F5F5F5"/>
<path d="M270.272 36.0144C269.944 36.3424 269.419 36.8672 268.763 37.5232C267.451 38.8352 265.418 40.8032 262.925 43.296C257.808 48.2816 250.395 55.5632 241.08 64.616C222.515 82.7216 196.538 107.978 167.083 136.645L166.952 136.776L166.821 136.645C160.982 129.691 154.947 122.41 148.715 114.997C132.053 95.0544 116.309 76.096 102.27 59.368H102.533C86.0672 83.968 72.16 104.894 62.32 119.654C57.4 127.002 53.5296 132.84 50.9056 136.842C49.5936 138.81 48.544 140.318 47.888 141.368C48.544 140.318 49.5936 138.81 50.9056 136.776C53.5296 132.774 57.4 126.936 62.2544 119.589C72.0288 104.829 85.936 83.9024 102.336 59.1056L102.467 58.9088L102.598 59.04C116.637 75.8336 132.381 94.7264 149.043 114.669C155.21 122.082 161.31 129.363 167.149 136.317H166.886C196.341 107.65 222.318 82.4592 240.949 64.4192C250.264 55.432 257.742 48.1504 262.859 43.1648C265.418 40.672 267.386 38.7696 268.763 37.4576C269.419 36.8016 269.944 36.3424 270.272 36.0144Z" fill="#EBEBEB"/>
<path d="M102.402 65.5344C105.952 65.5344 108.83 62.6561 108.83 59.1056C108.83 55.5551 105.952 52.6768 102.402 52.6768C98.8511 52.6768 95.9728 55.5551 95.9728 59.1056C95.9728 62.6561 98.8511 65.5344 102.402 65.5344Z" fill="#EBEBEB"/>
<path d="M49.2098 148.828C52.4934 147.477 54.0603 143.721 52.7097 140.437C51.359 137.154 47.6023 135.587 44.3188 136.937C41.0353 138.288 39.4683 142.045 40.819 145.328C42.1696 148.612 45.9263 150.179 49.2098 148.828Z" fill="#EBEBEB"/>
<path d="M173.303 137.476C173.87 133.971 171.488 130.67 167.983 130.103C164.478 129.536 161.177 131.917 160.61 135.423C160.043 138.928 162.424 142.229 165.929 142.796C169.434 143.363 172.736 140.981 173.303 137.476Z" fill="#EBEBEB"/>
<path d="M280.354 34.4706C281.133 31.0067 278.957 27.5669 275.493 26.7875C272.029 26.0082 268.59 28.1845 267.81 31.6484C267.031 35.1123 269.207 38.5521 272.671 39.3314C276.135 40.1108 279.575 37.9345 280.354 34.4706Z" fill="#EBEBEB"/>
<path d="M38.048 45.8544C39.6224 44.8704 41.328 44.1488 43.0336 43.6896L44.0832 38.7696L52.4144 38.6384L53.5952 43.5584C55.3664 44.0176 57.072 44.6736 58.6464 45.5264L62.8448 42.7712L68.88 48.544L66.256 52.8736C67.24 54.448 67.9616 56.1536 68.4208 57.8592L73.3408 58.9088L73.472 67.24L68.552 68.4208C68.0928 70.192 67.4368 71.8976 66.584 73.472L69.3392 77.6704L63.5664 83.7056L59.2368 81.0816C57.6624 82.0656 55.9568 82.7872 54.2512 83.2464L53.2016 88.1664L44.8704 88.2976L43.6896 83.3776C41.9184 82.9184 40.2128 82.2624 38.6384 81.4096L34.44 84.1648L28.4048 78.392L31.0288 74.0624C30.0448 72.488 29.3232 70.7824 28.864 69.0768L23.944 68.0272L23.8128 59.696L28.7328 58.5152C29.192 56.744 29.848 55.0384 30.7008 53.464L27.9456 49.2656L33.7184 43.2304L38.048 45.8544ZM42.5088 57.0064C39.0976 60.5488 39.1632 66.256 42.7056 69.6672C46.248 73.0784 51.9552 73.0128 55.3664 69.4704C58.7776 65.928 58.712 60.2208 55.1696 56.8096C51.5616 53.3328 45.92 53.3984 42.5088 57.0064Z" fill="#EBEBEB"/>
<path d="M175.742 30.7664C177.71 29.5856 179.81 28.6672 181.974 28.0768L183.221 21.9104L193.586 21.7136L195.094 27.8144C197.259 28.3392 199.358 29.192 201.392 30.3072L206.64 26.896L214.118 34.112L210.838 39.4912C212.019 41.4592 212.938 43.5584 213.528 45.7232L219.694 46.9696L219.891 57.3344L213.79 58.8432C213.266 61.008 212.413 63.1072 211.298 65.1408L214.709 70.3888L207.493 77.8672L202.114 74.5872C200.146 75.768 198.046 76.6864 195.882 77.2768L194.635 83.4432L184.27 83.64L182.762 77.5392C180.597 77.0144 178.498 76.1616 176.464 75.0464L171.216 78.4576L163.738 71.2416L167.018 65.8624C165.837 63.8944 164.918 61.7952 164.328 59.6304L158.162 58.384L157.965 48.0192L164.066 46.5104C164.59 44.3456 165.443 42.2464 166.558 40.2128L163.147 34.9648L170.363 27.4864L175.742 30.7664ZM181.253 44.608C176.989 49.0032 177.12 56.088 181.515 60.352C185.91 64.616 192.995 64.4848 197.259 60.0896C201.523 55.6944 201.392 48.6096 196.997 44.3456C192.536 40.0816 185.517 40.2128 181.253 44.608Z" fill="#F5F5F5"/>
<path d="M77.9328 25.256C78.7856 24.7312 79.6384 24.4032 80.5568 24.1408L81.0816 21.5824L85.4768 21.5168L86.1328 24.0752C87.0512 24.272 87.9696 24.6656 88.7568 25.1248L90.9872 23.6816L94.136 26.6992L92.7584 28.9296C93.2832 29.7824 93.6112 30.6352 93.8736 31.5536L96.432 32.0784L96.4976 36.4736L93.9392 37.1296C93.7424 38.048 93.3488 38.9664 92.8896 39.7536L94.3328 41.984L91.3152 45.1328L89.0848 43.7552C88.232 44.28 87.3792 44.608 86.4608 44.8704L85.936 47.4288L81.5408 47.4944L80.8848 44.936C79.9664 44.7392 79.048 44.3456 78.2608 43.8864L76.0304 45.3296L72.8816 42.312L74.2592 40.0816C73.7344 39.2288 73.4064 38.376 73.144 37.4576L70.5856 36.9328L70.52 32.5376L73.0784 31.8816C73.2752 30.9632 73.6688 30.0448 74.128 29.2576L72.6848 27.0272L75.7024 23.8784L77.9328 25.256ZM80.2288 31.0944C78.4576 32.9312 78.4576 35.9488 80.36 37.72C82.1968 39.4912 85.2144 39.4912 86.9856 37.5888C88.7568 35.752 88.7568 32.7344 86.8544 30.9632C85.0176 29.192 82.0656 29.192 80.2288 31.0944Z" fill="#F5F5F5"/>
<path d="M281.358 71.1104C282.474 70.4544 283.654 69.9296 284.901 69.6016L285.622 66.1248L291.526 65.9936L292.379 69.4704C293.626 69.7984 294.806 70.2576 295.987 70.848L298.939 68.88L303.203 73.0128L301.366 76.096C302.022 77.2112 302.547 78.392 302.875 79.6384L306.352 80.36L306.483 86.264L303.006 87.1168C302.678 88.3632 302.219 89.544 301.629 90.7248L303.597 93.7424L299.464 98.0064L296.381 96.1696C295.266 96.8256 294.085 97.3504 292.838 97.6784L292.117 101.155L286.213 101.286L285.36 97.8096C284.114 97.4816 282.933 97.0224 281.752 96.432L278.8 98.4L274.536 94.2672L276.373 91.184C275.717 90.0688 275.192 88.888 274.864 87.6416L271.387 86.92L271.256 81.016L274.733 80.1632C275.061 78.9168 275.52 77.736 276.11 76.5552L274.142 73.5376L278.275 69.2736L281.358 71.1104ZM284.507 78.9824C282.08 81.4752 282.146 85.5424 284.638 87.9696C287.131 90.3968 291.198 90.3312 293.626 87.8384C296.053 85.3456 295.987 81.2784 293.494 78.8512C290.936 76.3584 286.934 76.4896 284.507 78.9824Z" fill="#F5F5F5"/>
<path d="M316.979 313.174C316.979 313.24 248.493 313.371 164 313.371C79.5072 313.371 11.0208 313.306 11.0208 313.174C11.0208 313.109 79.5072 312.978 164 312.978C248.493 312.978 316.979 313.043 316.979 313.174Z" fill="#263238"/>
<path d="M211.298 313.174H265.155C266.205 313.174 266.992 312.322 266.926 311.272L264.237 273.158C264.171 272.24 263.384 271.518 262.466 271.518L213.003 271.453C212.085 271.453 211.298 272.174 211.232 273.158L209.526 311.338C209.461 312.322 210.314 313.174 211.298 313.174Z" fill="#263238"/>
<path d="M218.71 313.174C218.776 313.174 218.842 303.859 218.842 292.379C218.842 280.899 218.776 271.584 218.71 271.584C218.645 271.584 218.579 280.899 218.579 292.379C218.579 303.859 218.645 313.174 218.71 313.174Z" fill="#455A64"/>
<path d="M219.366 272.502C219.366 272.502 219.366 272.568 219.432 272.634C219.498 272.765 219.563 272.896 219.694 273.093C219.957 273.486 220.285 274.011 220.744 274.733C221.662 276.176 222.974 278.21 224.811 280.637C226.648 283.064 228.878 285.819 231.962 288.443C233.47 289.755 235.242 290.936 237.144 291.986C239.046 292.97 241.211 293.822 243.573 294.019C245.869 294.216 248.165 293.691 250.198 292.904C252.232 292.051 254.003 290.936 255.578 289.69C258.661 287.131 260.76 284.048 262.006 281.358C263.253 278.603 263.712 276.176 263.909 274.47C263.974 274.077 263.974 273.683 263.974 273.355C263.974 273.027 263.974 272.765 263.974 272.502C263.974 272.699 263.974 273.027 263.909 273.29C263.909 273.618 263.843 274.011 263.778 274.405C263.581 276.045 263.056 278.472 261.81 281.162C260.563 283.851 258.464 286.869 255.381 289.362C253.872 290.608 252.035 291.723 250.067 292.51C248.099 293.298 245.869 293.822 243.573 293.626C241.277 293.429 239.178 292.642 237.275 291.658C235.373 290.608 233.667 289.427 232.158 288.181C229.141 285.622 226.845 282.867 225.008 280.44C223.171 278.013 221.859 276.045 220.875 274.602C220.416 273.946 220.022 273.355 219.76 273.027C219.629 272.83 219.563 272.699 219.498 272.634C219.432 272.502 219.366 272.502 219.366 272.502Z" fill="#455A64"/>
<path d="M241.67 293.954C241.67 295.331 242.786 296.446 244.163 296.446C245.541 296.446 246.656 295.331 246.656 293.954C246.656 292.576 245.541 291.461 244.163 291.461C242.786 291.461 241.67 292.576 241.67 293.954Z" fill="#455A64"/>
<path d="M227.173 263.712C228.222 262.728 229.666 262.4 231.043 262.269C234.454 261.941 238.128 262.662 241.08 264.302C244.032 266.008 246.197 268.763 247.64 271.846L245.672 273.88C244.885 270.666 243.114 267.91 240.358 266.074C237.603 264.237 234.717 263.45 231.437 263.974C230.715 264.106 229.6 264.368 229.01 264.827C227.763 265.746 227.566 266.73 227.763 268.042C228.091 270.01 228.616 270.862 229.403 271.912C227.96 271.978 227.632 271.978 226.189 271.978C225.795 270.6 225.467 269.157 225.467 267.714C225.664 266.205 226.123 264.696 227.173 263.712Z" fill="#263238"/>
<path d="M173.118 293.166H152.717V301.235H173.118V293.166Z" fill="#FAFAFA"/>
<path d="M215.955 291.789H151.864V293.494H215.955V291.789Z" fill="#455A64"/>
<path d="M215.955 300.842H152.126V302.547H215.955V300.842Z" fill="#455A64"/>
<path d="M173.118 292.182L173.25 302.219H215.955V292.182H173.118Z" fill="#455A64"/>
<path d="M183.483 297.168C183.483 298.546 182.434 299.661 181.187 299.661C179.941 299.661 178.891 298.546 178.891 297.168C178.891 295.79 179.941 294.675 181.187 294.675C182.434 294.675 183.483 295.79 183.483 297.168Z" fill="#263238"/>
<path d="M181.187 300.054C179.744 300.054 178.498 298.742 178.498 297.168C178.498 295.594 179.678 294.282 181.187 294.282C182.63 294.282 183.877 295.594 183.877 297.168C183.877 298.742 182.696 300.054 181.187 300.054ZM181.187 295.069C180.138 295.069 179.219 296.053 179.219 297.234C179.219 298.414 180.072 299.398 181.187 299.398C182.237 299.398 183.155 298.414 183.155 297.234C183.155 295.987 182.302 295.069 181.187 295.069Z" fill="#E0E0E0"/>
<path d="M171.61 299.202C171.61 299.333 167.411 299.398 162.229 299.398C157.046 299.398 152.848 299.333 152.848 299.202C152.848 299.07 157.046 299.005 162.229 299.005C167.411 299.07 171.61 299.136 171.61 299.202Z" fill="#263238"/>
<path d="M171.61 297.824C171.61 297.955 167.411 298.021 162.229 298.021C157.046 298.021 152.848 297.955 152.848 297.824C152.848 297.693 157.046 297.627 162.229 297.627C167.411 297.627 171.61 297.693 171.61 297.824Z" fill="#263238"/>
<path d="M171.61 296.446C171.61 296.578 167.411 296.643 162.229 296.643C157.046 296.643 152.848 296.578 152.848 296.446C152.848 296.315 157.046 296.25 162.229 296.25C167.411 296.25 171.61 296.315 171.61 296.446Z" fill="#263238"/>
<path d="M171.61 295.003C171.61 295.134 167.411 295.2 162.229 295.2C157.046 295.2 152.848 295.134 152.848 295.003C152.848 294.872 157.046 294.806 162.229 294.806C167.411 294.806 171.61 294.938 171.61 295.003Z" fill="#263238"/>
<path d="M211.232 294.282H191.946V299.661H211.232V294.282Z" fill="white"/>
<path d="M194.963 299.136C194.832 299.136 194.766 298.152 194.766 296.971C194.766 295.79 194.832 294.806 194.963 294.806C195.094 294.806 195.16 295.79 195.16 296.971C195.16 298.152 195.094 299.136 194.963 299.136Z" fill="#E0E0E0"/>
<path d="M197.522 299.136C197.39 299.136 197.325 298.152 197.325 296.971C197.325 295.79 197.39 294.806 197.522 294.806C197.653 294.806 197.718 295.79 197.718 296.971C197.718 298.152 197.587 299.136 197.522 299.136Z" fill="#E0E0E0"/>
<path d="M200.08 299.136C199.949 299.136 199.883 298.152 199.883 296.971C199.883 295.79 199.949 294.806 200.08 294.806C200.211 294.806 200.277 295.79 200.277 296.971C200.211 298.152 200.146 299.136 200.08 299.136Z" fill="#E0E0E0"/>
<path d="M202.573 299.136C202.442 299.136 202.376 298.152 202.376 296.971C202.376 295.79 202.442 294.806 202.573 294.806C202.704 294.806 202.77 295.79 202.77 296.971C202.77 298.152 202.704 299.136 202.573 299.136Z" fill="#E0E0E0"/>
<path d="M205.131 299.136C205 299.136 204.934 298.152 204.934 296.971C204.934 295.79 205 294.806 205.131 294.806C205.262 294.806 205.328 295.79 205.328 296.971C205.328 298.152 205.262 299.136 205.131 299.136Z" fill="#E0E0E0"/>
<path d="M207.69 299.136C207.558 299.136 207.493 298.152 207.493 296.971C207.493 295.79 207.558 294.806 207.69 294.806C207.821 294.806 207.886 295.79 207.886 296.971C207.886 298.152 207.821 299.136 207.69 299.136Z" fill="#E0E0E0"/>
<path d="M175.808 303.597H155.406V311.666H175.808V303.597Z" fill="#FAFAFA"/>
<path d="M218.645 302.219H154.554V303.925H218.645V302.219Z" fill="#F7B836"/>
<path d="M218.71 311.272H154.882V312.978H218.71V311.272Z" fill="#F7B836"/>
<path d="M175.808 302.613L175.939 312.65H218.71V302.613H175.808Z" fill="#F7B836"/>
<path d="M186.238 307.664C186.238 309.042 185.189 310.157 183.942 310.157C182.696 310.157 181.646 309.042 181.646 307.664C181.646 306.286 182.696 305.171 183.942 305.171C185.189 305.171 186.238 306.286 186.238 307.664Z" fill="#263238"/>
<path d="M183.942 310.485C182.499 310.485 181.253 309.173 181.253 307.598C181.253 306.024 182.434 304.712 183.942 304.712C185.386 304.712 186.632 306.024 186.632 307.598C186.566 309.238 185.386 310.485 183.942 310.485ZM183.942 305.499C182.893 305.499 181.974 306.483 181.974 307.664C181.974 308.845 182.827 309.829 183.942 309.829C184.992 309.829 185.91 308.845 185.91 307.664C185.845 306.483 184.992 305.499 183.942 305.499Z" fill="#E0E0E0"/>
<path d="M174.299 309.698C174.299 309.829 170.101 309.894 164.918 309.894C159.736 309.894 155.538 309.829 155.538 309.698C155.538 309.566 159.736 309.501 164.918 309.501C170.101 309.501 174.299 309.566 174.299 309.698Z" fill="#263238"/>
<path d="M174.299 308.254C174.299 308.386 170.101 308.451 164.918 308.451C159.736 308.451 155.538 308.386 155.538 308.254C155.538 308.123 159.736 308.058 164.918 308.058C170.101 308.123 174.299 308.189 174.299 308.254Z" fill="#263238"/>
<path d="M174.299 306.877C174.299 307.008 170.101 307.074 164.918 307.074C159.736 307.074 155.538 307.008 155.538 306.877C155.538 306.746 159.736 306.68 164.918 306.68C170.101 306.68 174.299 306.746 174.299 306.877Z" fill="#263238"/>
<path d="M174.299 305.499C174.299 305.63 170.101 305.696 164.918 305.696C159.736 305.696 155.538 305.63 155.538 305.499C155.538 305.368 159.736 305.302 164.918 305.302C170.101 305.302 174.299 305.368 174.299 305.499Z" fill="#263238"/>
<path d="M213.987 304.778H194.701V310.157H213.987V304.778Z" fill="white"/>
<path d="M197.653 309.566C197.522 309.566 197.456 308.582 197.456 307.402C197.456 306.221 197.522 305.237 197.653 305.237C197.784 305.237 197.85 306.221 197.85 307.402C197.85 308.648 197.784 309.566 197.653 309.566Z" fill="#E0E0E0"/>
<path d="M200.211 309.566C200.08 309.566 200.014 308.582 200.014 307.402C200.014 306.221 200.08 305.237 200.211 305.237C200.342 305.237 200.408 306.221 200.408 307.402C200.408 308.648 200.342 309.566 200.211 309.566Z" fill="#E0E0E0"/>
<path d="M202.77 309.566C202.638 309.566 202.573 308.582 202.573 307.402C202.573 306.221 202.638 305.237 202.77 305.237C202.901 305.237 202.966 306.221 202.966 307.402C202.966 308.648 202.901 309.566 202.77 309.566Z" fill="#E0E0E0"/>
<path d="M205.328 309.566C205.197 309.566 205.131 308.582 205.131 307.402C205.131 306.221 205.197 305.237 205.328 305.237C205.459 305.237 205.525 306.221 205.525 307.402C205.525 308.648 205.394 309.566 205.328 309.566Z" fill="#E0E0E0"/>
<path d="M207.886 309.566C207.755 309.566 207.69 308.582 207.69 307.402C207.69 306.221 207.755 305.237 207.886 305.237C208.018 305.237 208.083 306.221 208.083 307.402C208.018 308.648 207.952 309.566 207.886 309.566Z" fill="#E0E0E0"/>
<path d="M210.379 309.566C210.248 309.566 210.182 308.582 210.182 307.402C210.182 306.221 210.248 305.237 210.379 305.237C210.51 305.237 210.576 306.221 210.576 307.402C210.576 308.648 210.51 309.566 210.379 309.566Z" fill="#E0E0E0"/>
<path d="M134.152 110.798L128.838 109.749C125.296 111.717 121.098 112.701 116.702 112.242C106.272 111.192 98.2688 102.205 98.3344 91.7088C98.4 79.6384 108.896 70.192 121.032 71.4384C131.331 72.488 139.334 81.2784 139.4 91.6432C139.466 96.76 137.629 101.418 134.546 105.026L134.152 110.798Z" fill="white"/>
<path d="M134.152 110.798C134.152 110.798 134.152 110.667 134.152 110.405C134.152 110.142 134.218 109.749 134.218 109.29C134.283 108.306 134.349 106.862 134.48 105.026L134.611 105.091C134.546 105.091 134.546 105.091 134.48 105.091V105.026C136.12 103.058 137.957 100.171 138.81 96.1696C139.203 94.2016 139.4 92.0368 139.138 89.6752C138.875 87.3792 138.219 84.952 137.038 82.656C135.858 80.36 134.152 78.1296 131.987 76.2928C129.822 74.456 127.198 72.9472 124.246 72.2256C121.294 71.4384 118.08 71.3072 114.931 71.8976C111.782 72.488 108.699 73.9312 106.141 76.0304C104.829 77.08 103.648 78.3264 102.664 79.6384C102.205 80.2944 101.746 81.016 101.286 81.7376L100.696 82.8528L100.368 83.312L100.171 83.9024C98.9248 86.92 98.4 90.1344 98.5968 93.152C98.7936 96.2352 99.712 99.1216 101.09 101.614C102.467 104.107 104.304 106.206 106.403 107.846C108.437 109.486 110.733 110.602 112.963 111.258C113.554 111.389 114.078 111.52 114.603 111.717C115.128 111.848 115.718 111.914 116.243 111.979C117.293 112.176 118.342 112.176 119.392 112.176C123.459 112.11 126.674 110.798 128.838 109.618H128.904C130.61 109.946 131.922 110.274 132.774 110.47C133.234 110.536 133.562 110.667 133.824 110.667C134.021 110.733 134.152 110.798 134.152 110.798C134.152 110.798 134.021 110.798 133.824 110.733C133.562 110.667 133.234 110.602 132.84 110.536C131.922 110.339 130.61 110.142 128.904 109.814H128.97C126.805 111.061 123.525 112.373 119.458 112.504C118.408 112.504 117.358 112.504 116.309 112.307C115.784 112.242 115.194 112.176 114.669 112.045C114.144 111.914 113.554 111.782 112.963 111.651C110.667 110.995 108.437 109.814 106.272 108.174C104.173 106.534 102.27 104.435 100.893 101.877C99.5152 99.3184 98.4656 96.3664 98.3344 93.2832C98.1376 90.1344 98.5968 86.92 99.9088 83.8368L100.171 83.2464L100.434 82.7216C100.63 82.328 100.827 82 101.024 81.6064C101.418 80.8848 101.942 80.1632 102.402 79.5072C103.451 78.1952 104.566 76.8832 105.944 75.8336C108.568 73.6688 111.717 72.2256 114.931 71.6352C118.146 71.0448 121.426 71.176 124.378 71.9632C127.395 72.7504 130.019 74.2592 132.25 76.1616C134.48 77.9984 136.186 80.2944 137.366 82.5904C138.547 84.952 139.203 87.3792 139.466 89.7408C139.662 92.1024 139.531 94.3328 139.072 96.3008C138.219 100.302 136.317 103.254 134.677 105.157L134.48 104.96C134.546 104.96 134.546 104.96 134.611 104.96C134.611 104.96 134.611 104.96 134.611 105.026C134.48 106.862 134.349 108.306 134.283 109.355C134.218 109.814 134.218 110.208 134.218 110.47C134.152 110.667 134.152 110.798 134.152 110.798Z" fill="#263238"/>
<path d="M109.749 93.1521L112.307 90.3969L117.621 94.7921L127.33 84.7552L129.888 87.3137L117.358 99.9089L109.749 93.1521Z" fill="#2B6F64"/>
<path d="M276.635 76.2928H259.907L211.232 105.616C211.429 105.878 217.136 110.077 224.68 115.39L154.094 245.344L95.0544 219.235L42.7056 313.306H71.3072L107.322 247.509L161.507 272.634L184.467 275.389L246.656 131.2C254.462 136.71 260.498 140.974 260.498 140.974H277.226C277.226 140.974 272.371 100.106 272.371 99.7776C272.371 99.384 276.635 76.2928 276.635 76.2928Z" fill="#FF725E"/>
<path d="M276.635 76.2928H259.907L211.232 105.616C211.429 105.878 217.136 110.077 224.68 115.39L154.094 245.344L95.0544 219.235L42.7056 313.306H71.3072L107.322 247.509L161.507 272.634L184.467 275.389L246.656 131.2C254.462 136.71 260.498 140.974 260.498 140.974H277.226C277.226 140.974 272.371 100.106 272.371 99.7776C272.371 99.384 276.635 76.2928 276.635 76.2928Z" fill="#D89825"/>
<path d="M59.6304 313.306L112.176 218.448L171.019 245.344L246.918 105.616L269.485 117.49L184.533 275.323L124.246 247.443L88.232 313.306H59.6304Z" fill="#F7B836"/>
<path d="M227.894 105.616C228.419 106.403 277.226 140.909 277.226 140.909L276.635 76.2928L227.894 105.616Z" fill="#F7B836"/>
<path d="M227.894 105.616C227.894 105.682 224.155 105.813 219.563 105.813C214.971 105.813 211.232 105.747 211.232 105.616C211.232 105.485 214.971 105.419 219.563 105.419C224.155 105.485 227.894 105.55 227.894 105.616Z" fill="#263238"/>
<path d="M240.949 115.718C240.949 115.784 237.21 115.915 232.618 115.915C228.026 115.915 224.286 115.85 224.286 115.718C224.286 115.653 228.026 115.522 232.618 115.522C237.21 115.522 240.949 115.587 240.949 115.718Z" fill="#263238"/>
<path d="M115.522 174.234C115.522 174.234 114.538 174.693 114.341 173.315C114.21 171.938 117.03 169.117 117.883 168.264C118.802 167.346 120.048 167.542 121.229 167.805C122.344 168.067 127.067 168.526 128.576 169.51C130.15 170.494 132.512 175.48 132.971 175.742C133.496 176.005 148.059 176.726 148.059 176.726L147.403 188.666C147.403 188.666 133.037 185.91 130.216 184.139C127.395 182.368 127.723 181.646 126.936 180.006C126.149 178.366 125.23 176.595 125.23 176.595L123.918 176.398L121.754 177.579C121.754 177.579 121.491 180.597 119.392 180.531L118.342 180.006C118.342 180.006 117.621 180.794 116.834 179.547C116.046 178.301 116.178 178.038 116.178 178.038C116.178 178.038 115.325 179.088 114.472 177.776C113.75 176.595 115.522 174.234 115.522 174.234Z" fill="#AE7461"/>
<path d="M131.266 179.285C131.266 179.285 131.2 179.285 131.134 179.35C131.003 179.35 130.872 179.416 130.675 179.416C130.282 179.416 129.626 179.35 128.97 178.957C128.314 178.563 127.592 177.907 127.133 176.923C126.674 176.005 126.411 174.824 126.346 173.578L126.608 173.709C125.624 174.168 124.509 174.43 123.328 174.496C122.475 174.496 121.688 174.43 120.901 174.234C120.507 174.102 120.114 174.102 119.786 173.709C119.589 173.512 119.589 173.184 119.72 172.987C119.851 172.79 120.048 172.725 120.245 172.659C121.557 172.134 122.738 171.741 123.787 171.413C124.837 171.085 125.624 170.888 126.214 170.757C126.805 170.626 127.133 170.56 127.133 170.626C127.133 170.626 126.805 170.757 126.28 170.888C125.69 171.085 124.902 171.282 123.853 171.675C122.869 172.003 121.622 172.462 120.376 172.987C120.245 173.053 120.048 173.118 119.982 173.25C119.917 173.315 119.917 173.446 119.982 173.578C120.179 173.774 120.573 173.906 120.901 173.971C121.622 174.168 122.41 174.234 123.197 174.234C124.312 174.168 125.427 173.906 126.346 173.512L126.542 173.381V173.643C126.608 174.824 126.805 176.005 127.198 176.923C127.592 177.842 128.248 178.498 128.904 178.891C129.56 179.285 130.15 179.416 130.544 179.416C131.069 179.285 131.266 179.285 131.266 179.285Z" fill="#6F4439"/>
<path d="M123.853 171.085C123.853 171.15 123.328 171.413 122.475 171.347C122.016 171.347 121.557 171.282 120.966 171.282C120.442 171.282 119.917 171.544 119.458 172.003C118.539 172.987 117.49 173.643 116.702 173.971C115.915 174.299 115.325 174.365 115.325 174.365C115.325 174.299 115.85 174.168 116.571 173.774C117.358 173.381 118.277 172.725 119.195 171.806C119.392 171.544 119.654 171.347 119.982 171.216C120.31 171.085 120.638 171.019 120.901 171.019C121.491 171.019 122.016 171.085 122.41 171.15C123.328 171.216 123.853 171.019 123.853 171.085Z" fill="#6F4439"/>
<path d="M120.835 174.299C120.901 174.299 120.31 175.677 118.998 176.792C117.686 177.973 116.243 178.301 116.243 178.235C116.178 178.17 117.49 177.645 118.802 176.53C120.048 175.414 120.77 174.234 120.835 174.299Z" fill="#6F4439"/>
<path d="M121.36 176.136C121.426 176.136 121.229 177.317 120.376 178.498C119.523 179.678 118.474 180.203 118.408 180.138C118.342 180.072 119.261 179.416 120.048 178.301C120.966 177.186 121.294 176.07 121.36 176.136Z" fill="#6F4439"/>
<path d="M165.509 150.88L152.454 174.496L132.118 174.102L130.61 186.304L151.536 191.421L160.195 181.974L165.509 150.88Z" fill="#E0E0E0"/>
<path d="M154.094 178.498C153.963 178.498 153.898 177.514 153.438 176.464C152.979 175.349 152.389 174.562 152.52 174.496C152.586 174.43 153.307 175.152 153.766 176.333C154.16 177.448 154.16 178.498 154.094 178.498Z" fill="#263238"/>
<path d="M170.494 109.158C168.854 109.355 167.149 108.174 166.755 106.6C166.362 104.96 167.346 103.123 168.986 102.598C167.936 101.549 167.674 99.8432 168.33 98.5312C168.986 97.2192 170.56 96.3664 172.003 96.5632C172.069 95.12 172.856 93.6768 174.168 92.9552C175.414 92.2336 177.054 92.2336 178.366 92.9552C179.941 91.5776 182.565 91.4464 184.205 92.7584C185.582 92.496 187.157 93.2176 187.878 94.464C188.534 95.7104 188.338 97.416 187.288 98.4656" fill="#263238"/>
<path d="M184.861 96.0383H184.139C176.595 96.1695 170.429 102.074 169.97 109.618C169.51 116.637 169.182 124.312 169.248 128.051C169.51 135.792 177.251 136.842 177.251 136.842L176.792 146.157L177.71 153.242L195.619 145.173L196.603 111.389C197.194 103.386 192.93 96.3663 184.861 96.0383Z" fill="#AE7461"/>
<path d="M177.251 136.907C177.251 136.907 182.237 137.104 187.354 133.758C187.354 133.758 184.926 139.728 177.186 139.203L177.251 136.907Z" fill="#6F4439"/>
<path d="M172.528 117.555C172.528 118.146 172.987 118.605 173.643 118.67C174.234 118.67 174.758 118.211 174.758 117.621C174.758 117.03 174.299 116.571 173.643 116.506C172.987 116.506 172.528 116.965 172.528 117.555Z" fill="#263238"/>
<path d="M171.741 113.357C171.872 113.488 172.725 112.832 173.906 112.832C175.086 112.766 176.005 113.422 176.136 113.226C176.202 113.16 176.07 112.898 175.677 112.635C175.283 112.373 174.627 112.11 173.906 112.11C173.184 112.11 172.528 112.438 172.2 112.701C171.806 113.029 171.675 113.291 171.741 113.357Z" fill="#263238"/>
<path d="M182.565 117.293C182.565 117.883 183.024 118.342 183.68 118.408C184.27 118.408 184.795 117.949 184.795 117.358C184.795 116.768 184.336 116.309 183.68 116.243C183.09 116.243 182.63 116.702 182.565 117.293Z" fill="#263238"/>
<path d="M183.418 113.357C183.549 113.488 184.402 112.832 185.582 112.832C186.763 112.766 187.682 113.422 187.813 113.226C187.878 113.16 187.747 112.898 187.354 112.635C186.96 112.373 186.304 112.11 185.582 112.11C184.861 112.11 184.205 112.438 183.877 112.701C183.483 113.029 183.352 113.291 183.418 113.357Z" fill="#263238"/>
<path d="M179.285 122.278C179.285 122.213 178.563 122.082 177.317 121.95C176.989 121.95 176.726 121.885 176.661 121.688C176.595 121.491 176.726 121.163 176.858 120.77C177.12 120.048 177.382 119.261 177.71 118.408C178.891 115.062 179.744 112.373 179.613 112.307C179.482 112.242 178.432 114.931 177.251 118.211C176.989 118.998 176.661 119.786 176.464 120.573C176.333 120.901 176.136 121.294 176.333 121.754C176.398 121.95 176.661 122.147 176.858 122.213C177.054 122.278 177.251 122.278 177.382 122.278C178.563 122.344 179.285 122.344 179.285 122.278Z" fill="#263238"/>
<path d="M182.302 108.83C182.434 109.158 183.483 108.765 184.73 108.699C185.976 108.634 187.026 108.83 187.157 108.502C187.222 108.371 186.96 108.109 186.501 107.846C186.042 107.584 185.386 107.453 184.598 107.518C183.877 107.584 183.221 107.846 182.762 108.109C182.434 108.371 182.237 108.699 182.302 108.83Z" fill="#263238"/>
<path d="M171.61 108.502C171.872 108.765 172.856 108.437 174.037 108.437C175.218 108.371 176.202 108.568 176.464 108.306C176.53 108.174 176.398 107.912 175.939 107.65C175.48 107.387 174.758 107.19 173.971 107.256C173.184 107.322 172.462 107.584 172.069 107.846C171.61 108.043 171.478 108.371 171.61 108.502Z" fill="#263238"/>
<path d="M170.691 106.075C170.691 106.075 172.659 101.155 174.955 99.9744C177.776 98.5312 179.022 101.614 181.712 100.827C184.402 100.04 187.091 98.6624 189.846 100.696C192.93 102.926 191.552 104.566 191.749 107.978C192.798 121.885 195.422 125.821 196.013 119.195C196.078 118.474 198.046 117.883 198.309 114.8C198.637 110.864 198.702 106.075 197.718 103.254C196.931 100.893 195.554 99.3184 193.126 97.5472C189.256 94.792 184.008 94.8576 180.466 95.2512C176.989 95.776 170.232 99.9744 170.691 106.075Z" fill="#263238"/>
<path d="M195.554 118.998C195.554 117.818 196.603 116.834 197.784 116.899C199.227 117.03 200.867 117.818 200.802 120.77C200.736 126.083 195.422 124.902 195.422 124.771C195.422 124.706 195.488 121.229 195.554 118.998Z" fill="#AE7461"/>
<path d="M196.603 122.869C196.603 122.869 196.669 122.934 196.866 123C196.997 123.066 197.259 123.131 197.587 123C198.178 122.803 198.637 121.95 198.702 120.966C198.702 120.507 198.637 120.048 198.44 119.654C198.309 119.261 198.046 118.998 197.784 118.933C197.522 118.867 197.325 118.998 197.259 119.195C197.194 119.326 197.194 119.458 197.194 119.458C197.194 119.458 197.062 119.392 197.128 119.13C197.128 118.998 197.194 118.933 197.325 118.802C197.456 118.67 197.653 118.67 197.85 118.67C198.243 118.736 198.637 119.064 198.834 119.523C199.03 119.917 199.162 120.442 199.162 121.032C199.096 122.082 198.571 123.066 197.784 123.328C197.39 123.394 197.128 123.328 196.931 123.197C196.603 123 196.603 122.869 196.603 122.869Z" fill="#6F4439"/>
<path d="M195.226 108.765C194.57 109.224 193.848 109.749 192.995 109.814C192.142 109.88 191.224 109.486 191.027 108.634C190.962 108.24 191.027 107.846 190.765 107.584C190.437 107.256 189.912 107.387 189.518 107.453C188.01 107.65 186.173 106.01 185.714 104.501C185.32 105.091 184.467 105.288 183.877 104.894C183.286 104.501 183.024 104.304 182.565 103.779C182.106 103.254 181.45 102.795 180.728 102.926C180.334 102.992 180.006 103.254 179.613 103.189C178.891 103.123 178.563 102.336 178.432 101.614C178.301 100.958 178.235 100.106 177.645 99.7776C177.12 99.4496 176.398 99.6464 175.742 99.7776C175.086 99.9088 174.299 99.7776 174.102 99.1216C174.037 98.7936 174.168 98.4656 174.299 98.1376C175.086 96.8256 176.858 96.2352 178.301 96.76C178.76 94.9888 180.4 93.6112 182.237 93.3488C184.074 93.152 185.976 94.0704 186.829 95.6448C187.944 94.5952 189.518 94.136 191.027 94.464C192.536 94.792 193.782 95.8416 194.438 97.2192C195.75 96.8256 197.194 97.3504 198.046 98.3344C198.899 99.384 199.03 100.893 198.374 102.074C199.358 102.598 200.146 103.517 200.211 104.632C200.277 105.747 199.227 106.862 198.112 106.6C198.571 107.453 198.243 108.634 197.39 109.093C196.603 109.618 195.357 109.355 194.832 108.568" fill="#263238"/>
<path d="M178.038 98.3344V98.4C178.038 98.4656 178.038 98.5312 178.104 98.6624C178.17 98.9248 178.235 99.2528 178.498 99.6464C178.76 100.04 179.154 100.499 179.678 100.893C180.269 101.286 180.99 101.549 181.843 101.483L181.778 101.352C181.646 101.811 181.646 102.336 181.909 102.795C182.106 103.254 182.499 103.648 182.827 104.107C183.024 104.304 183.155 104.501 183.418 104.698C183.68 104.894 183.942 104.96 184.27 105.026C184.861 105.091 185.517 104.894 185.976 104.37L185.779 104.304C185.91 105.354 186.566 106.403 187.55 106.994C188.075 107.322 188.666 107.584 189.322 107.518C189.912 107.518 190.502 107.322 191.027 107.125L190.896 107.059C191.224 107.715 191.618 108.24 192.208 108.699C192.733 109.093 193.454 109.355 194.045 109.158C195.291 108.896 196.078 107.781 196.275 106.862L196.144 106.928C196.8 107.256 197.456 107.256 197.981 107.19C198.506 107.059 198.965 106.862 199.227 106.6C199.555 106.338 199.686 106.141 199.818 105.944C199.883 105.747 199.949 105.682 199.949 105.682C199.949 105.682 199.752 106.075 199.162 106.534C198.834 106.731 198.44 106.994 197.915 107.059C197.39 107.125 196.8 107.125 196.21 106.797L196.078 106.731V106.862C195.947 107.781 195.16 108.765 193.979 109.027C193.389 109.158 192.798 108.962 192.274 108.568C191.749 108.174 191.355 107.65 191.093 107.059L191.027 106.994L190.896 107.059C190.371 107.256 189.846 107.453 189.256 107.453C188.666 107.453 188.141 107.322 187.616 106.928C186.698 106.338 186.107 105.354 185.976 104.37L185.91 104.107L185.779 104.304C185.451 104.763 184.795 104.96 184.27 104.894C184.008 104.894 183.746 104.763 183.549 104.632C183.352 104.501 183.155 104.238 182.958 104.042C182.565 103.648 182.237 103.254 182.04 102.795C181.843 102.336 181.778 101.877 181.909 101.483L181.974 101.352H181.843C181.056 101.418 180.269 101.155 179.744 100.827C179.154 100.499 178.826 100.04 178.563 99.6464C178.038 98.8592 178.038 98.3344 178.038 98.3344Z" fill="#455A64"/>
<path d="M179.613 126.346C179.613 126.149 180.925 126.411 182.106 125.427C183.221 124.509 183.352 123.066 183.549 123.066C183.614 123.066 183.746 123.394 183.68 123.984C183.614 124.574 183.221 125.362 182.565 125.952C181.843 126.542 181.056 126.674 180.531 126.608C179.875 126.674 179.613 126.477 179.613 126.346Z" fill="#263238"/>
<path d="M141.827 201.392L151.93 190.24L160.392 164.722C162.098 160.326 163.606 154.685 165.706 150.486C166.755 148.453 168.461 146.813 170.56 145.829L174.168 144.254L176.333 140.843C175.086 148.584 185.91 149.502 197.456 139.925C197.456 139.925 201.261 142.483 206.64 146.944C209.002 148.912 211.101 151.011 212.019 154.226C213.659 160.064 206.706 177.317 199.162 193.586C196.931 198.44 186.173 220.219 186.173 220.219L182.302 223.04C182.302 223.04 148.125 212.675 145.042 206.968C141.827 201.392 141.827 201.392 141.827 201.392Z" fill="#E0E0E0"/>
<path d="M147.469 194.766C147.469 194.766 147.534 194.635 147.731 194.438C147.928 194.176 148.256 193.914 148.584 193.52C149.371 192.733 150.486 191.552 151.864 190.174V190.24C152.52 188.272 153.242 185.976 154.094 183.418C154.947 180.859 155.866 177.973 156.718 174.89C158.424 168.92 160.064 163.541 161.573 159.736C162.294 157.834 163.016 156.325 163.475 155.275C163.738 154.816 163.934 154.422 164.066 154.094C164.197 153.832 164.262 153.701 164.262 153.701C164.262 153.701 164.197 153.832 164.131 154.16C164 154.488 163.803 154.882 163.606 155.341C163.147 156.39 162.491 157.899 161.835 159.802C160.392 163.606 158.818 168.986 157.046 174.955C156.128 177.973 155.275 180.859 154.357 183.483C153.504 186.042 152.717 188.403 152.061 190.306C150.683 191.683 149.568 192.798 148.715 193.586C148.322 193.914 148.059 194.242 147.797 194.438C147.6 194.701 147.469 194.766 147.469 194.766Z" fill="#263238"/>
<path d="M178.826 152.258L167.018 200.802L154.75 206.902V195.029L176.005 151.208L178.826 152.258Z" fill="#2B6F64"/>
<g opacity="0.3">
<path d="M156.259 196.406C159.605 197.653 162.622 199.686 165.574 201.654C168.526 203.688 171.478 205.722 174.758 207.165C178.038 208.608 181.712 209.33 185.254 208.608C188.731 207.886 192.011 205.459 193.192 202.114L156.259 196.406Z" fill="black"/>
</g>
<path d="M174.102 144.123L177.12 139.531L178.366 145.894L181.318 142.483L196.275 135.464L198.899 141.04L182.368 150.814L177.776 150.421L174.43 146.485L174.102 144.123Z" fill="#E0E0E0"/>
<path d="M174.102 144.123C174.168 144.123 174.234 144.451 174.299 145.107C174.43 145.829 174.627 146.616 174.824 147.534L174.496 147.469C174.758 147.01 175.021 146.485 175.283 145.96C175.742 145.173 176.136 144.386 176.53 143.73L176.661 143.467L176.792 143.795C177.054 144.582 177.186 145.173 177.317 145.632C177.448 146.091 177.514 146.354 177.448 146.354C177.448 146.354 177.317 146.157 177.12 145.698C176.923 145.238 176.792 144.648 176.464 143.926H176.726C176.333 144.582 175.939 145.37 175.48 146.157C175.218 146.682 174.89 147.141 174.627 147.666L174.43 148.059L174.365 147.6C174.168 145.632 174.037 144.189 174.102 144.123Z" fill="#263238"/>
<path d="M179.154 146.485L177.251 146.222C176.726 146.813 175.48 147.994 174.955 148.584V148.65C175.152 149.896 175.414 151.208 175.611 152.454C176.661 152.389 177.776 152.52 178.76 152.717C179.416 151.602 179.875 150.749 180.531 149.634L179.154 146.485Z" fill="#2B6F64"/>
<path d="M182.434 217.989C182.368 218.054 181.843 217.398 180.925 216.48C180.006 215.562 178.629 214.315 177.12 213.069C175.546 211.822 174.037 210.773 172.922 210.051C171.806 209.33 171.085 208.936 171.15 208.87C171.15 208.87 171.347 208.936 171.675 209.067C172.003 209.198 172.462 209.461 173.053 209.789C174.168 210.445 175.742 211.429 177.317 212.741C178.891 213.987 180.203 215.299 181.122 216.283C181.581 216.742 181.909 217.202 182.171 217.464C182.302 217.858 182.434 217.989 182.434 217.989Z" fill="#263238"/>
<path d="M179.285 146.878L181.45 145.829L182.106 149.568L180.4 149.699L179.285 146.878Z" fill="#2B6F64"/>
<path opacity="0.3" d="M181.122 144.386V152.717L196.734 142.418L182.237 150.88L181.122 144.386Z" fill="black"/>
<path d="M198.899 141.04C198.899 141.04 198.571 141.302 197.981 141.696C197.39 142.09 196.472 142.68 195.357 143.336C193.126 144.714 189.912 146.354 186.501 148.387C185.058 149.24 183.68 150.093 182.434 150.946L182.237 151.077L182.171 150.814C181.712 148.256 181.318 146.026 180.99 144.386L181.187 144.451C180.531 145.107 179.941 145.566 179.547 145.96C179.154 146.288 178.957 146.485 178.957 146.485C178.957 146.485 179.154 146.288 179.482 145.894C179.875 145.501 180.4 144.976 181.056 144.32L181.187 144.189L181.253 144.386C181.581 146.026 182.04 148.256 182.565 150.814L182.302 150.683C183.549 149.83 184.926 148.978 186.37 148.125C189.846 146.157 193.061 144.517 195.291 143.205C196.406 142.549 197.325 142.024 197.915 141.63C198.506 141.237 198.899 140.974 198.899 141.04Z" fill="#263238"/>
<path d="M177.251 146.944L176.398 144.845L174.955 147.469L175.611 148.453L177.251 146.944Z" fill="#2B6F64"/>
<path d="M179.678 146.682C179.744 146.747 178.694 147.928 177.579 149.568C176.464 151.142 175.677 152.586 175.611 152.52C175.546 152.454 176.202 151.011 177.317 149.371C178.432 147.731 179.613 146.616 179.678 146.682Z" fill="#263238"/>
<path d="M178.629 152.782C178.629 152.848 177.907 152.782 176.989 152.651C176.136 152.52 175.414 152.389 175.414 152.258C175.414 152.192 176.136 152.126 177.054 152.323C177.973 152.454 178.629 152.717 178.629 152.782Z" fill="#263238"/>
<path d="M100.106 182.958L90.2656 155.078C90.0688 154.488 90.4624 153.832 91.0528 153.701L113.816 147.731C114.406 147.6 114.931 147.928 115.128 148.453L125.493 179.81L157.637 200.933L156.062 202.507L147.862 200.474L100.106 182.958Z" fill="#455A64"/>
<path d="M156.062 202.573C156.062 202.573 155.997 202.573 155.866 202.507C155.734 202.442 155.603 202.31 155.406 202.179C154.947 201.917 154.357 201.523 153.635 200.998C152.061 199.949 149.83 198.506 147.141 196.669C141.63 192.995 134.086 187.878 125.69 182.237C125.099 181.843 124.509 181.45 123.984 181.056H123.918V180.99C120.901 171.872 118.211 163.672 116.243 157.768C115.259 154.816 114.538 152.454 113.947 150.814C113.685 150.027 113.488 149.371 113.357 148.912C113.291 148.715 113.226 148.518 113.226 148.387C113.226 148.256 113.16 148.19 113.16 148.19C113.16 148.19 113.16 148.256 113.226 148.322C113.291 148.453 113.357 148.584 113.422 148.781C113.554 149.24 113.816 149.83 114.078 150.683C114.669 152.323 115.456 154.685 116.44 157.637C118.408 163.541 121.163 171.741 124.246 180.859L124.181 180.794C124.706 181.187 125.296 181.581 125.886 181.974C134.218 187.616 141.762 192.733 147.272 196.472C149.962 198.309 152.192 199.818 153.701 200.933C154.422 201.458 155.013 201.851 155.472 202.179C155.669 202.31 155.8 202.442 155.931 202.507C155.997 202.573 156.062 202.573 156.062 202.573Z" fill="#263238"/>
<path d="M104.042 182.368C104.042 182.302 108.502 181.974 114.013 181.712C119.523 181.45 124.05 181.318 124.05 181.384C124.05 181.45 119.589 181.778 114.078 182.04C108.502 182.302 104.042 182.434 104.042 182.368Z" fill="#263238"/>
<path d="M107.65 166.493C108.043 167.739 107.846 168.92 107.125 169.182C106.469 169.379 105.616 168.526 105.222 167.28C104.829 166.034 105.026 164.853 105.747 164.59C106.403 164.328 107.256 165.181 107.65 166.493Z" fill="#E0E0E0"/>
<path d="M135.726 176.398C135.726 176.398 134.874 176.792 134.742 175.48C134.611 174.299 137.498 172.528 138.613 171.806C139.662 171.15 141.958 171.61 143.139 171.741C144.714 171.938 148.387 173.578 149.502 174.955C150.683 176.398 151.47 180.006 151.93 180.334C152.389 180.662 166.886 186.37 166.886 186.37L163.606 197.915C163.606 197.915 150.224 192.011 147.862 189.65C145.501 187.288 146.026 186.698 145.632 184.861C145.238 183.09 144.779 181.187 144.779 181.187L143.533 180.662L141.171 181.318C141.171 181.318 140.909 182.237 140.253 182.893C139.531 183.746 138.219 183.68 137.498 182.827C137.498 182.827 136.317 183.221 135.726 181.909C135.464 181.384 135.661 180.531 135.661 180.531C135.661 180.531 134.611 180.728 134.546 179.416C134.48 178.038 135.726 176.398 135.726 176.398Z" fill="#AE7461"/>
<path d="M143.27 177.907C143.27 177.973 142.811 177.973 142.024 178.104C141.302 178.235 140.253 178.629 139.4 179.416C138.547 180.203 138.022 181.122 137.76 181.843C137.498 182.565 137.432 183.024 137.432 183.024C137.366 183.024 137.366 182.499 137.563 181.778C137.76 180.99 138.285 180.006 139.203 179.154C140.122 178.366 141.237 177.973 142.024 177.842C142.811 177.776 143.27 177.907 143.27 177.907Z" fill="#6F4439"/>
<path d="M142.221 175.48C142.221 175.546 141.696 175.48 140.909 175.611C140.122 175.808 139.072 176.267 138.154 177.186C137.235 178.038 136.645 179.088 136.186 179.744C135.726 180.466 135.464 180.925 135.398 180.859C135.333 180.859 135.53 180.334 135.923 179.613C136.317 178.891 136.907 177.842 137.826 176.923C138.744 176.005 139.925 175.48 140.778 175.349C141.696 175.218 142.221 175.414 142.221 175.48Z" fill="#6F4439"/>
<path d="M141.958 172.725C141.958 172.79 141.499 172.725 140.778 172.856C140.056 172.987 139.138 173.315 138.285 173.971C137.432 174.627 136.71 175.349 136.251 175.874C135.726 176.398 135.464 176.726 135.398 176.726C135.333 176.726 135.595 176.333 136.054 175.742C136.514 175.152 137.17 174.365 138.088 173.709C139.006 173.053 139.99 172.659 140.778 172.594C141.565 172.528 142.024 172.725 141.958 172.725Z" fill="#6F4439"/>
<path d="M204.082 146.55C208.149 147.338 210.838 150.946 211.691 155.406C212.872 161.77 198.243 191.88 195.554 198.44C192.667 205.394 186.37 206.902 182.63 206.771C178.957 206.706 153.045 194.57 153.045 194.57L156.85 181.45L179.875 188.272L188.928 162.688" fill="#E0E0E0"/>
<path d="M188.928 162.688C188.928 162.688 188.862 162.819 188.797 163.147C188.666 163.475 188.534 163.934 188.338 164.459C187.944 165.64 187.354 167.346 186.566 169.576C184.992 174.037 182.762 180.466 179.941 188.338L179.875 188.469L179.744 188.403C173.118 186.435 165.312 184.139 156.718 181.581L156.915 181.45C155.734 185.648 154.422 190.043 153.11 194.57L153.045 194.373C159.08 197.194 165.574 200.146 172.266 202.966C175.021 204.082 177.71 205.262 180.466 206.115L181.515 206.443C181.843 206.509 182.171 206.574 182.565 206.64C183.286 206.64 184.008 206.64 184.664 206.509C186.042 206.312 187.419 205.918 188.666 205.394C191.158 204.278 193.258 202.31 194.57 199.949C195.226 198.768 195.685 197.522 196.21 196.341C196.734 195.16 197.259 193.979 197.784 192.798C202.048 183.418 205.787 174.955 208.477 167.674C209.789 164 210.97 160.654 211.429 157.637C211.56 156.85 211.56 156.128 211.494 155.406C211.363 154.685 211.232 154.029 210.97 153.438C210.576 152.192 209.986 151.077 209.395 150.224C208.149 148.453 206.64 147.534 205.656 147.075C205.131 146.878 204.738 146.747 204.41 146.682C204.147 146.616 203.95 146.55 203.95 146.55C203.95 146.55 204.082 146.55 204.41 146.616C204.672 146.682 205.131 146.813 205.656 147.01C206.706 147.469 208.214 148.322 209.526 150.158C210.182 151.077 210.707 152.126 211.166 153.438C211.363 154.094 211.56 154.75 211.691 155.472C211.822 156.194 211.757 156.981 211.626 157.702C211.166 160.786 210.051 164.131 208.739 167.805C206.05 175.086 202.31 183.614 198.046 192.995C197.522 194.176 196.997 195.357 196.472 196.538C195.947 197.718 195.488 198.965 194.832 200.211C193.52 202.638 191.421 204.606 188.797 205.787C187.485 206.378 186.107 206.771 184.664 206.968C183.942 207.034 183.221 207.099 182.499 207.099C182.106 207.034 181.778 206.968 181.384 206.902L180.334 206.574C177.579 205.722 174.824 204.541 172.134 203.426C165.378 200.605 158.949 197.653 152.848 194.832L152.717 194.766L152.782 194.635C154.094 190.109 155.341 185.714 156.587 181.515L156.653 181.384L156.784 181.45C165.378 184.008 173.184 186.37 179.81 188.338L179.678 188.403C182.499 180.466 184.795 174.102 186.37 169.642C187.157 167.411 187.813 165.706 188.206 164.525C188.403 163.934 188.6 163.541 188.666 163.213C188.862 162.819 188.928 162.688 188.928 162.688Z" fill="#263238"/>
<path d="M183.483 197.981C183.352 197.981 183.024 195.685 181.974 193.061C180.99 190.371 179.678 188.403 179.81 188.403C179.875 188.403 180.203 188.862 180.728 189.65C181.253 190.437 181.843 191.618 182.368 192.995C182.893 194.373 183.221 195.619 183.352 196.538C183.483 197.39 183.549 197.981 183.483 197.981Z" fill="#263238"/>
<path d="M202.442 146.616C202.442 146.682 201.589 146.944 200.277 147.6C199.621 147.928 198.899 148.387 198.112 148.912C197.325 149.437 196.472 150.158 195.685 150.88C194.898 151.667 194.242 152.454 193.651 153.242C193.061 154.029 192.602 154.75 192.274 155.406C191.618 156.718 191.29 157.571 191.224 157.506C191.224 157.506 191.29 157.309 191.421 156.915C191.552 156.522 191.749 155.997 192.077 155.275C192.405 154.619 192.864 153.832 193.389 153.045C193.979 152.258 194.635 151.405 195.422 150.618C196.21 149.83 197.062 149.174 197.915 148.584C198.702 148.059 199.49 147.6 200.211 147.338C200.867 147.01 201.458 146.813 201.851 146.682C202.245 146.682 202.442 146.616 202.442 146.616Z" fill="#263238"/>
<path d="M58.9088 241.146L46.4448 225.598C46.4448 225.598 94.5296 185.976 99.056 183.155C102.467 180.99 109.486 178.17 116.112 180.4C122.738 182.63 133.955 190.371 138.088 192.864C142.221 195.357 178.235 217.661 182.106 223.106C182.106 223.106 174.299 237.275 169.117 239.637C165.115 241.474 153.504 238.718 146.747 234.586C139.99 230.453 108.962 203.885 108.962 203.885L58.9088 241.146Z" fill="#263238"/>
<path d="M63.5664 259.317L80.36 271.387L112.701 218.71L145.37 233.602L123.394 196.931C123.394 196.931 105.682 197.128 102.926 196.8C99.384 196.406 92.824 202.048 89.2816 208.936C86.1328 214.906 63.5664 259.317 63.5664 259.317Z" fill="#263238"/>
<path d="M134.742 229.272C134.677 229.338 127.33 221.794 118.277 212.478C109.224 203.163 102.008 195.488 102.074 195.422C102.139 195.357 109.486 202.901 118.539 212.216C127.592 221.597 134.808 229.206 134.742 229.272Z" fill="#455A64"/>
<path opacity="0.3" d="M73.0128 230.715C73.0128 230.715 87.4448 203.688 94.2672 201.917C94.2672 201.917 84.4272 215.299 81.0816 224.746L73.0128 230.715Z" fill="black"/>
<path d="M105.157 198.637C105.157 198.702 104.501 198.374 103.254 198.243C102.008 198.112 100.171 198.309 98.2032 199.293C96.1696 200.277 94.2016 202.114 92.496 204.475C90.7904 206.837 89.0192 209.592 87.3792 212.61C84.0992 218.579 81.5408 224.286 79.5728 228.288C78.5888 230.322 77.736 231.896 77.1456 233.011C76.8832 233.536 76.6208 233.93 76.424 234.258C76.2272 234.52 76.1616 234.717 76.1616 234.717C76.1616 234.717 76.2272 234.586 76.3584 234.258C76.4896 233.93 76.752 233.536 77.0144 232.946C77.5392 231.83 78.392 230.19 79.376 228.157C81.344 224.155 83.8368 218.448 87.1168 212.413C88.7568 209.395 90.528 206.64 92.2992 204.278C94.0704 201.917 96.104 200.014 98.2032 199.03C100.237 198.046 102.139 197.85 103.386 198.046C104.566 198.309 105.157 198.637 105.157 198.637Z" fill="#455A64"/>
<path d="M71.832 249.542L62.648 266.467C62.648 266.467 42.1152 264.04 40.344 267.123L73.6688 284.179L87.5104 257.48L71.832 249.542Z" fill="#263238"/>
<path d="M73.6688 270.338C75.0464 271.584 73.2096 273.749 71.832 272.568C70.3232 271.19 72.488 269.026 73.8 270.469" fill="#E0E0E0"/>
<path d="M73.6032 284.179L74.9152 281.424L42.5088 266.139C42.5088 266.139 40.672 266.008 40.344 267.189L73.6032 284.179Z" fill="#455A64"/>
<path d="M62.1888 266.074C62.1232 266.27 62.9104 266.73 63.4352 267.648C64.0256 268.566 64.0256 269.485 64.2224 269.485C65.1408 268.96 63.1072 265.549 62.1888 266.074Z" fill="white"/>
<path d="M57.9248 265.746C57.7936 265.877 58.384 266.533 58.5808 267.517C58.7776 268.501 58.5808 269.288 58.712 269.354C59.7616 269.091 58.9744 265.483 57.9248 265.746Z" fill="white"/>
<path d="M53.792 268.894C54.7104 269.026 54.8416 265.418 53.9232 265.483C53.9888 265.549 53.8576 268.763 53.792 268.894Z" fill="white"/>
<path d="M64.4848 262.269C64.616 262.269 67.7648 264.106 67.8304 264.237C68.3552 263.515 64.8784 261.482 64.4848 262.269Z" fill="white"/>
<path d="M59.3024 219.301L43.5584 230.387C43.5584 230.387 26.24 219.104 23.2224 221.072L45.5264 251.117L69.1424 232.486L59.3024 219.301Z" fill="#263238"/>
<path d="M51.7584 238.784C52.4144 240.49 49.856 241.605 49.1344 239.899C48.4128 237.997 51.2992 237.013 51.824 238.915" fill="#E0E0E0"/>
<path d="M45.5264 251.182L47.888 249.28L25.584 221.203C25.584 221.203 24.0096 220.285 23.1568 221.138L45.5264 251.182Z" fill="#455A64"/>
<path d="M43.296 229.862C43.1648 229.994 43.624 230.781 43.6896 231.83C43.7552 232.88 43.4272 233.733 43.5584 233.864C44.6736 233.733 44.4112 229.797 43.296 229.862Z" fill="white"/>
<path d="M39.688 227.632C39.4912 227.698 39.7536 228.55 39.4912 229.469C39.2944 230.453 38.704 231.043 38.8352 231.174C39.8848 231.502 40.7376 227.894 39.688 227.632Z" fill="white"/>
<path d="M34.5712 228.682C35.2928 229.206 37.064 225.992 36.2112 225.664C36.2112 225.795 34.6368 228.616 34.5712 228.682Z" fill="white"/>
<path opacity="0.3" d="M132.315 226.714C132.315 226.714 113.947 212.741 109.552 207.296C105.222 201.982 102.926 196.8 102.926 196.8L132.315 226.714Z" fill="black"/>
</svg>
