<svg width="35" height="38" viewBox="0 0 35 38" fill="none" xmlns="http://www.w3.org/2000/svg">
<path d="M25.9559 1.26272C25.9559 0.927827 25.8229 0.606649 25.5861 0.369842C25.3493 0.133036 25.0281 0 24.6932 0C24.3583 0 24.0371 0.133036 23.8003 0.369842C23.5635 0.606649 23.4305 0.927827 23.4305 1.26272V2.52544C23.4305 2.86034 23.5635 3.18151 23.8003 3.41832C24.0371 3.65513 24.3583 3.78816 24.6932 3.78816C25.0281 3.78816 25.3493 3.65513 25.5861 3.41832C25.8229 3.18151 25.9559 2.86034 25.9559 2.52544V1.26272ZM31.8364 4.74404C32.0664 4.50589 32.1937 4.18693 32.1908 3.85584C32.1879 3.52476 32.0552 3.20806 31.821 2.97394C31.5869 2.73982 31.2702 2.60702 30.9391 2.60414C30.608 2.60127 30.2891 2.72854 30.0509 2.95856L29.1582 3.8513C28.9282 4.08945 28.8009 4.40842 28.8038 4.7395C28.8066 5.07058 28.9394 5.38729 29.1736 5.62141C29.4077 5.85552 29.7244 5.98832 30.0555 5.9912C30.3866 5.99408 30.7055 5.8668 30.9437 5.63679L31.8364 4.74404ZM34.795 10.1018C34.795 10.4367 34.6619 10.7578 34.4251 10.9946C34.1883 11.2315 33.8671 11.3645 33.5322 11.3645H32.2695C31.9346 11.3645 31.6135 11.2315 31.3766 10.9946C31.1398 10.7578 31.0068 10.4367 31.0068 10.1018C31.0068 9.76687 31.1398 9.4457 31.3766 9.20889C31.6135 8.97208 31.9346 8.83905 32.2695 8.83905H33.5322C33.8671 8.83905 34.1883 8.97208 34.4251 9.20889C34.6619 9.4457 34.795 9.76687 34.795 10.1018ZM18.4427 5.63679C18.5592 5.75739 18.6985 5.85359 18.8526 5.91976C19.0067 5.98594 19.1724 6.02078 19.34 6.02223C19.5077 6.02369 19.674 5.99174 19.8291 5.92825C19.9843 5.86476 20.1253 5.771 20.2439 5.65244C20.3624 5.53388 20.4562 5.39289 20.5197 5.23771C20.5832 5.08253 20.6151 4.91625 20.6137 4.74859C20.6122 4.58092 20.5774 4.41523 20.5112 4.26117C20.445 4.10712 20.3488 3.96778 20.2282 3.8513L19.3355 2.95856C19.0973 2.72854 18.7784 2.60127 18.4473 2.60414C18.1162 2.60702 17.7995 2.73982 17.5654 2.97394C17.3312 3.20806 17.1985 3.52476 17.1956 3.85584C17.1927 4.18693 17.32 4.50589 17.55 4.74404L18.4427 5.63679ZM18.3796 10.1018C18.3796 10.4367 18.2466 10.7578 18.0098 10.9946C17.7729 11.2315 17.4518 11.3645 17.1169 11.3645H15.8542C15.5193 11.3645 15.1981 11.2315 14.9613 10.9946C14.7245 10.7578 14.5914 10.4367 14.5914 10.1018C14.5914 9.76687 14.7245 9.4457 14.9613 9.20889C15.1981 8.97208 15.5193 8.83905 15.8542 8.83905H17.1169C17.4518 8.83905 17.7729 8.97208 18.0098 9.20889C18.2466 9.4457 18.3796 9.76687 18.3796 10.1018ZM22.1678 17.6781V16.4154H27.2186V17.6781C27.2186 18.3479 26.9526 18.9902 26.479 19.4639C26.0053 19.9375 25.363 20.2035 24.6932 20.2035C24.0234 20.2035 23.3811 19.9375 22.9074 19.4639C22.4338 18.9902 22.1678 18.3479 22.1678 17.6781ZM27.2186 15.1527C27.2376 14.7233 27.4813 14.3369 27.821 14.068C28.6451 13.418 29.2463 12.5274 29.541 11.52C29.8356 10.5126 29.8091 9.43841 29.4651 8.44676C29.1212 7.4551 28.4768 6.59525 27.6216 5.98671C26.7664 5.37816 25.7428 5.05117 24.6932 5.05117C23.6436 5.05117 22.62 5.37816 21.7648 5.98671C20.9096 6.59525 20.2652 7.4551 19.9213 8.44676C19.5773 9.43841 19.5508 10.5126 19.8454 11.52C20.1401 12.5274 20.7413 13.418 21.5654 14.068C21.9064 14.3369 22.1488 14.7233 22.1665 15.1527H27.2199H27.2186Z" fill="#7B8D9E"/>
<path d="M33.3869 26.5258C32.9554 26.2045 32.4531 25.9837 31.9192 25.8808C31.3852 25.7779 30.8339 25.7955 30.3081 25.9323L24.2433 27.282C24.3844 26.7051 24.3888 26.1047 24.2561 25.5259C24.1233 24.9471 23.857 24.4049 23.477 23.9399C23.097 23.4749 22.6132 23.0992 22.0618 22.841C21.5105 22.5827 20.9059 22.4486 20.2934 22.4486H13.037C12.4276 22.4471 11.824 22.5626 11.261 22.7882C10.6979 23.0139 10.1867 23.3452 9.75675 23.7633L6.47793 26.9383H2.31924C1.70414 26.9383 1.11423 27.1748 0.67929 27.5958C0.244348 28.0168 0 28.5878 0 29.1831L0 34.7952C0 35.3906 0.244348 35.9616 0.67929 36.3826C1.11423 36.8035 1.70414 37.0401 2.31924 37.0401H17.3943C17.4891 37.0401 17.5836 37.0288 17.6755 37.0064L26.9525 34.7615C27.0116 34.7479 27.0693 34.7291 27.125 34.7054L32.7593 32.3848L32.823 32.3568C33.3645 32.0949 33.8282 31.7038 34.1705 31.2205C34.5127 30.7372 34.7222 30.1776 34.7791 29.5943C34.8361 29.0109 34.7388 28.4232 34.4962 27.8864C34.2536 27.3495 33.8739 26.8813 33.3927 26.5258H33.3869ZM2.31924 29.1831H5.7981V34.7952H2.31924V29.1831ZM31.8069 30.335L26.2987 32.6051L17.2493 34.7952H8.11734V28.5251L11.3976 25.3515C11.6122 25.1421 11.8676 24.9761 12.1491 24.8632C12.4305 24.7502 12.7324 24.6925 13.037 24.6935H20.2934C20.7547 24.6935 21.1971 24.8708 21.5233 25.1866C21.8495 25.5023 22.0328 25.9306 22.0328 26.3771C22.0328 26.8236 21.8495 27.2518 21.5233 27.5676C21.1971 27.8833 20.7547 28.0607 20.2934 28.0607H16.2347C15.9271 28.0607 15.6322 28.179 15.4147 28.3895C15.1972 28.6 15.0751 28.8854 15.0751 29.1831C15.0751 29.4808 15.1972 29.7663 15.4147 29.9768C15.6322 30.1873 15.9271 30.3055 16.2347 30.3055H20.8732C20.9604 30.3053 21.0474 30.2959 21.1326 30.2775L30.8444 28.1154L30.8894 28.1042C31.1859 28.0245 31.5023 28.0538 31.7778 28.1864C32.0533 28.319 32.2684 28.5455 32.3818 28.8224C32.4951 29.0992 32.4987 29.4069 32.3917 29.6861C32.2848 29.9654 32.075 30.1965 31.8026 30.335H31.8069Z" fill="#7B8D9E"/>
</svg>
