<svg width="21" height="23" viewBox="0 0 21 23" fill="none" xmlns="http://www.w3.org/2000/svg">
<path d="M15.75 0.8125C15.75 0.597012 15.671 0.390349 15.5303 0.237976C15.3897 0.0856024 15.1989 0 15 0C14.8011 0 14.6103 0.0856024 14.4697 0.237976C14.329 0.390349 14.25 0.597012 14.25 0.8125V1.625C14.25 1.84049 14.329 2.04715 14.4697 2.19952C14.6103 2.3519 14.8011 2.4375 15 2.4375C15.1989 2.4375 15.3897 2.3519 15.5303 2.19952C15.671 2.04715 15.75 1.84049 15.75 1.625V0.8125ZM19.2427 3.05256C19.3794 2.89932 19.455 2.69408 19.4533 2.48105C19.4515 2.26801 19.3727 2.06423 19.2336 1.91358C19.0946 1.76294 18.9064 1.67749 18.7098 1.67564C18.5132 1.67379 18.3237 1.75568 18.1823 1.90369L17.652 2.47813C17.5154 2.63136 17.4398 2.8366 17.4415 3.04964C17.4432 3.26267 17.5221 3.46646 17.6611 3.6171C17.8002 3.76775 17.9883 3.8532 18.1849 3.85505C18.3816 3.8569 18.571 3.775 18.7125 3.627L19.2427 3.05256ZM21 6.5C21 6.71549 20.921 6.92215 20.7803 7.07452C20.6397 7.2269 20.4489 7.3125 20.25 7.3125H19.5C19.3011 7.3125 19.1103 7.2269 18.9697 7.07452C18.829 6.92215 18.75 6.71549 18.75 6.5C18.75 6.28451 18.829 6.07785 18.9697 5.92548C19.1103 5.7731 19.3011 5.6875 19.5 5.6875H20.25C20.4489 5.6875 20.6397 5.7731 20.7803 5.92548C20.921 6.07785 21 6.28451 21 6.5ZM11.2875 3.627C11.3567 3.7046 11.4394 3.7665 11.5309 3.80908C11.6224 3.85166 11.7209 3.87408 11.8204 3.87502C11.92 3.87595 12.0188 3.8554 12.111 3.81454C12.2031 3.77369 12.2869 3.71336 12.3573 3.63707C12.4277 3.56078 12.4834 3.47007 12.5211 3.37021C12.5588 3.27036 12.5778 3.16337 12.5769 3.05549C12.5761 2.9476 12.5554 2.84099 12.5161 2.74186C12.4768 2.64273 12.4196 2.55308 12.348 2.47813L11.8177 1.90369C11.6763 1.75568 11.4868 1.67379 11.2902 1.67564C11.0936 1.67749 10.9054 1.76294 10.7664 1.91358C10.6273 2.06423 10.5485 2.26801 10.5467 2.48105C10.545 2.69408 10.6206 2.89932 10.7572 3.05256L11.2875 3.627ZM11.25 6.5C11.25 6.71549 11.171 6.92215 11.0303 7.07452C10.8897 7.2269 10.6989 7.3125 10.5 7.3125H9.75C9.55109 7.3125 9.36032 7.2269 9.21967 7.07452C9.07902 6.92215 9 6.71549 9 6.5C9 6.28451 9.07902 6.07785 9.21967 5.92548C9.36032 5.7731 9.55109 5.6875 9.75 5.6875H10.5C10.6989 5.6875 10.8897 5.7731 11.0303 5.92548C11.171 6.07785 11.25 6.28451 11.25 6.5ZM13.5 11.375V10.5625H16.5V11.375C16.5 11.806 16.342 12.2193 16.0607 12.524C15.7794 12.8288 15.3978 13 15 13C14.6022 13 14.2206 12.8288 13.9393 12.524C13.658 12.2193 13.5 11.806 13.5 11.375ZM16.5 9.75C16.5112 9.47375 16.656 9.22512 16.8578 9.05206C17.3473 8.63383 17.7043 8.06078 17.8794 7.41256C18.0544 6.76435 18.0386 6.07316 17.8343 5.43508C17.63 4.797 17.2473 4.24372 16.7393 3.85216C16.2314 3.46059 15.6234 3.25018 15 3.25018C14.3766 3.25018 13.7686 3.46059 13.2607 3.85216C12.7527 4.24372 12.37 4.797 12.1657 5.43508C11.9614 6.07316 11.9456 6.76435 12.1206 7.41256C12.2957 8.06078 12.6527 8.63383 13.1422 9.05206C13.3447 9.22512 13.4888 9.47375 13.4993 9.75H16.5008H16.5Z" fill="#7B8D9E"/>
<path d="M20.1502 16.5148C19.8897 16.3166 19.5866 16.1805 19.2643 16.117C18.9421 16.0535 18.6094 16.0644 18.292 16.1488L14.6317 16.9813C14.7169 16.6254 14.7195 16.2551 14.6394 15.8981C14.5593 15.5411 14.3985 15.2067 14.1692 14.9199C13.9399 14.633 13.6479 14.4013 13.3151 14.242C12.9823 14.0827 12.6174 14 12.2478 14H7.86831C7.50052 13.9991 7.1362 14.0703 6.7964 14.2095C6.45659 14.3486 6.14803 14.553 5.88855 14.8109L3.90966 16.7692H1.39974C1.02851 16.7692 0.672478 16.9151 0.409975 17.1748C0.147473 17.4344 0 17.7866 0 18.1539L0 21.6154C0 21.9826 0.147473 22.3348 0.409975 22.5945C0.672478 22.8541 1.02851 23 1.39974 23H10.4981C10.5553 23 10.6123 22.9931 10.6678 22.9792L16.2668 21.5946C16.3025 21.5862 16.3373 21.5746 16.3709 21.56L19.7714 20.1287L19.8099 20.1113C20.1367 19.9498 20.4165 19.7086 20.6231 19.4105C20.8296 19.1124 20.956 18.7672 20.9904 18.4074C21.0248 18.0476 20.9661 17.6851 20.8197 17.354C20.6733 17.0229 20.4441 16.7341 20.1537 16.5148H20.1502ZM1.39974 18.1539H3.49936V21.6154H1.39974V18.1539ZM19.1966 18.8643L15.8722 20.2645L10.4106 21.6154H4.8991V17.748L6.87886 15.7905C7.00837 15.6614 7.16254 15.559 7.3324 15.4893C7.50226 15.4196 7.68442 15.384 7.86831 15.3846H12.2478C12.5262 15.3846 12.7932 15.494 12.9901 15.6888C13.187 15.8835 13.2976 16.1477 13.2976 16.4231C13.2976 16.6985 13.187 16.9626 12.9901 17.1574C12.7932 17.3521 12.5262 17.4615 12.2478 17.4615H9.7982C9.61259 17.4615 9.43457 17.5345 9.30332 17.6643C9.17207 17.7941 9.09833 17.9702 9.09833 18.1539C9.09833 18.3375 9.17207 18.5136 9.30332 18.6434C9.43457 18.7732 9.61259 18.8462 9.7982 18.8462H12.5977C12.6504 18.846 12.7029 18.8402 12.7543 18.8289L18.6157 17.4953L18.6428 17.4884C18.8218 17.4392 19.0127 17.4573 19.179 17.5391C19.3453 17.6208 19.4751 17.7606 19.5435 17.9313C19.6119 18.1021 19.6141 18.2919 19.5496 18.4641C19.485 18.6364 19.3584 18.7789 19.194 18.8643H19.1966Z" fill="#7B8D9E"/>
</svg>
