<svg width="21" height="19" viewBox="0 0 21 19" fill="none" xmlns="http://www.w3.org/2000/svg">
<path d="M19.8947 0V2.23529H0V0H19.8947ZM0 13.4118H9.94737V11.1765H0V13.4118ZM0 7.82353H19.8947V5.58824H0V7.82353ZM16.5789 10.0588C17.1652 10.0588 17.7275 10.2943 18.142 10.7135C18.5566 11.1327 18.7895 11.7013 18.7895 12.2941C18.7895 12.887 18.5566 13.4555 18.142 13.8747C17.7275 14.2939 17.1652 14.5294 16.5789 14.5294C15.3521 14.5294 14.3684 13.5347 14.3684 12.2941C14.3684 11.0535 15.3632 10.0588 16.5789 10.0588ZM12.1579 19V17.8824C12.1579 16.6529 14.1363 15.6471 16.5789 15.6471C19.0216 15.6471 21 16.6529 21 17.8824V19H12.1579Z" fill="#F38218"/>
</svg>
