<svg width="20" height="20" viewBox="0 0 20 20" fill="none" xmlns="http://www.w3.org/2000/svg">
<path d="M18.9474 0V2.35294H0V0H18.9474ZM0 14.1176H9.47368V11.7647H0V14.1176ZM0 8.23529H18.9474V5.88235H0V8.23529ZM15.7895 10.5882C16.3478 10.5882 16.8833 10.8361 17.2781 11.2774C17.6729 11.7187 17.8947 12.3171 17.8947 12.9412C17.8947 13.5652 17.6729 14.1637 17.2781 14.605C16.8833 15.0462 16.3478 15.2941 15.7895 15.2941C14.6211 15.2941 13.6842 14.2471 13.6842 12.9412C13.6842 11.6353 14.6316 10.5882 15.7895 10.5882ZM11.5789 20V18.8235C11.5789 17.5294 13.4632 16.4706 15.7895 16.4706C18.1158 16.4706 20 17.5294 20 18.8235V20H11.5789Z" fill="#F38218"/>
</svg>
