<svg width="18" height="19" viewBox="0 0 18 19" fill="none" xmlns="http://www.w3.org/2000/svg">
<path d="M7.875 14.25H10.125V8.55H7.875V14.25ZM9 6.65C9.31875 6.65 9.58613 6.5588 9.80213 6.3764C10.0181 6.194 10.1257 5.96853 10.125 5.7C10.125 5.43083 10.017 5.20505 9.801 5.02265C9.585 4.84025 9.318 4.74937 9 4.75C8.68125 4.75 8.41388 4.8412 8.19788 5.0236C7.98188 5.206 7.87425 5.43147 7.875 5.7C7.875 5.96917 7.983 6.19495 8.199 6.37735C8.415 6.55975 8.682 6.65063 9 6.65ZM9 19C6.39375 18.4458 4.242 17.183 2.54475 15.2114C0.847501 13.2398 -0.000749503 11.051 4.96908e-07 8.645V2.85L9 0L18 2.85V8.645C18 11.0517 17.1514 13.2408 15.4541 15.2124C13.7569 17.1839 11.6055 18.4465 9 19Z" fill="#F38218"/>
</svg>
