<svg width="20" height="20" viewBox="0 0 20 20" fill="none" xmlns="http://www.w3.org/2000/svg">
<path d="M8.75 15H11.25V9H8.75V15ZM10 7C10.3542 7 10.6513 6.904 10.8913 6.712C11.1313 6.52 11.2508 6.28267 11.25 6C11.25 5.71667 11.13 5.479 10.89 5.287C10.65 5.095 10.3533 4.99933 10 5C9.64583 5 9.34875 5.096 9.10875 5.288C8.86875 5.48 8.74917 5.71733 8.75 6C8.75 6.28333 8.87 6.521 9.11 6.713C9.35 6.905 9.64667 7.00067 10 7ZM10 20C7.10417 19.4167 4.71333 18.0873 2.8275 16.012C0.941667 13.9367 -0.000832781 11.6327 5.5212e-07 9.1V3L10 0L20 3V9.1C20 11.6333 19.0571 13.9377 17.1712 16.013C15.2854 18.0883 12.895 19.4173 10 20Z" fill="#F38218"/>
</svg>
