<svg width="18" height="17" viewBox="0 0 18 17" fill="none" xmlns="http://www.w3.org/2000/svg">
<path fill-rule="evenodd" clip-rule="evenodd" d="M5.22222 3.77778C5.22222 2.77585 5.62024 1.81496 6.32871 1.10649C7.03718 0.398015 7.99807 0 9 0C10.0019 0 10.9628 0.398015 11.6713 1.10649C12.3798 1.81496 12.7778 2.77585 12.7778 3.77778C12.7778 4.77971 12.3798 5.7406 11.6713 6.44907C10.9628 7.15754 10.0019 7.55556 9 7.55556C7.99807 7.55556 7.03718 7.15754 6.32871 6.44907C5.62024 5.7406 5.22222 4.77971 5.22222 3.77778ZM5.22222 9.44444C3.96981 9.44444 2.7687 9.94196 1.88311 10.8276C0.997518 11.7131 0.5 12.9143 0.5 14.1667C0.5 14.9181 0.798511 15.6388 1.32986 16.1701C1.86122 16.7015 2.58189 17 3.33333 17H14.6667C15.4181 17 16.1388 16.7015 16.6701 16.1701C17.2015 15.6388 17.5 14.9181 17.5 14.1667C17.5 12.9143 17.0025 11.7131 16.1169 10.8276C15.2313 9.94196 14.0302 9.44444 12.7778 9.44444H5.22222Z" fill="#7B8D9E"/>
</svg>
