<svg width="20" height="20" viewBox="0 0 20 20" fill="none" xmlns="http://www.w3.org/2000/svg">
<path d="M17.7778 2.00018H13.1333C12.9058 1.41563 12.4821 0.90915 11.9207 0.550815C11.3594 0.192481 10.6882 0 10 0C9.31179 0 8.64059 0.192481 8.07925 0.550815C7.51791 0.90915 7.09418 1.41563 6.86667 2.00018H2.22222C1.63339 2.00176 1.06918 2.21298 0.652817 2.58771C0.23645 2.96244 0.00175859 3.47022 0 4.00016V18C0.00175859 18.53 0.23645 19.0377 0.652817 19.4125C1.06918 19.7872 1.63339 19.9984 2.22222 20H17.7778C18.3666 19.9984 18.9308 19.7872 19.3472 19.4125C19.7636 19.0377 19.9982 18.53 20 18V4.00016C19.9982 3.47022 19.7636 2.96244 19.3472 2.58771C18.9308 2.21298 18.3666 2.00176 17.7778 2.00018ZM10 2.00018C10.2198 2.00018 10.4346 2.05883 10.6173 2.16871C10.8 2.27859 10.9424 2.43477 11.0265 2.61749C11.1106 2.80022 11.1326 3.00128 11.0898 3.19526C11.0469 3.38924 10.9411 3.56742 10.7857 3.70727C10.6303 3.84712 10.4323 3.94236 10.2168 3.98095C10.0012 4.01953 9.77783 3.99973 9.5748 3.92404C9.37177 3.84836 9.19824 3.72018 9.07615 3.55574C8.95405 3.39129 8.88889 3.19795 8.88889 3.00017C8.88977 2.7352 9.00711 2.48131 9.2153 2.29395C9.42348 2.10658 9.70559 2.00097 10 2.00018ZM7.77778 7.00013L10.8778 9.7941L13.6778 7.27413L12.2222 6.00014H16.6667V10.0001L15.2489 8.68911L10.88 12.6241L7.77778 9.8301L4.90444 12.4141L3.33333 11.0001L7.77778 7.00013ZM17.7778 17H2.22222V15.0001H17.7778V17Z" fill="#F38218"/>
</svg>
