<svg width="20" height="21" viewBox="0 0 20 21" fill="none" xmlns="http://www.w3.org/2000/svg">
<path d="M17.7778 2.10019H13.1333C12.9058 1.48641 12.4821 0.954608 11.9207 0.578356C11.3594 0.202105 10.6882 0 10 0C9.31179 0 8.64059 0.202105 8.07925 0.578356C7.51791 0.954608 7.09418 1.48641 6.86667 2.10019H2.22222C1.63339 2.10185 1.06918 2.32363 0.652817 2.7171C0.23645 3.11056 0.00175859 3.64373 0 4.20017V18.9C0.00175859 19.4565 0.23645 19.9896 0.652817 20.3831C1.06918 20.7766 1.63339 20.9983 2.22222 21H17.7778C18.3666 20.9983 18.9308 20.7766 19.3472 20.3831C19.7636 19.9896 19.9982 19.4565 20 18.9V4.20017C19.9982 3.64373 19.7636 3.11056 19.3472 2.7171C18.9308 2.32363 18.3666 2.10185 17.7778 2.10019ZM10 2.10019C10.2198 2.10019 10.4346 2.16177 10.6173 2.27715C10.8 2.39252 10.9424 2.55651 11.0265 2.74837C11.1106 2.94023 11.1326 3.15135 11.0898 3.35502C11.0469 3.5587 10.9411 3.74579 10.7857 3.89263C10.6303 4.03948 10.4323 4.13948 10.2168 4.17999C10.0012 4.22051 9.77783 4.19972 9.5748 4.12024C9.37177 4.04077 9.19824 3.90619 9.07615 3.73352C8.95405 3.56085 8.88889 3.35785 8.88889 3.15018C8.88977 2.87196 9.00711 2.60538 9.2153 2.40864C9.42348 2.21191 9.70559 2.10102 10 2.10019ZM7.77778 7.35014L10.8778 10.2838L13.6778 7.63783L12.2222 6.30015H16.6667V10.5001L15.2489 9.12357L10.88 13.2553L7.77778 10.3216L4.90444 13.0348L3.33333 11.5501L7.77778 7.35014ZM17.7778 17.85H2.22222V15.7501H17.7778V17.85Z" fill="#F38218"/>
</svg>
