<svg width="22" height="22" viewBox="0 0 22 22" fill="none" xmlns="http://www.w3.org/2000/svg">
<path d="M3.75462 10.3226C4.00351 10.3226 4.2422 10.4214 4.41819 10.5974C4.59418 10.7734 4.69305 11.0121 4.69305 11.261C6.16744 11.2588 7.59932 11.7548 8.75641 12.6686H10.7928C12.0428 12.6686 13.167 13.2129 13.9402 14.0762H16.8925C17.7796 14.076 18.6485 14.3272 19.3986 14.8008C20.1487 15.2743 20.7492 15.9507 21.1304 16.7517C18.9111 19.6805 15.3179 21.5836 11.262 21.5836C8.6438 21.5836 6.42912 21.0178 4.6358 20.0277C4.57015 20.2089 4.45022 20.3654 4.29235 20.4759C4.13449 20.5864 3.94638 20.6455 3.75369 20.6452H0.938421C0.689537 20.6452 0.450845 20.5463 0.274857 20.3703C0.0988692 20.1944 0 19.9557 0 19.7068V11.261C0 11.0121 0.0988692 10.7734 0.274857 10.5974C0.450845 10.4214 0.689537 10.3226 0.938421 10.3226H3.75369H3.75462ZM4.69305 13.1378V17.8506L4.73527 17.8806C6.4188 19.063 8.61377 19.7068 11.262 19.7068C14.081 19.7068 16.703 18.622 18.6145 16.7695L18.7393 16.6447L18.6267 16.5509C18.1836 16.2038 17.6465 15.9978 17.0849 15.9597L16.8925 15.9531H14.9106C14.9791 16.2553 15.0157 16.5687 15.0157 16.8915V17.8299H6.56989V15.9531L12.9418 15.9522L12.9099 15.878C12.7299 15.5024 12.4532 15.1814 12.1082 14.9481C11.7632 14.7147 11.3623 14.5774 10.9467 14.5502L10.7928 14.5455H8.04321C7.60692 14.0992 7.08575 13.7448 6.51039 13.5031C5.93504 13.2613 5.31713 13.1371 4.69305 13.1378ZM2.8162 12.1994H1.87778V18.7684H2.8162V12.1994Z" fill="#F38218"/>
<path d="M12.2969 10.3226L13.1356 6.50598L10.3227 3.9389L14.0388 3.59934L15.484 0L16.9291 3.59934L20.6453 3.9389L17.8324 6.50598L18.6711 10.3226L15.484 8.29886L12.2969 10.3226Z" fill="#F38218"/>
</svg>
