<svg width="20" height="20" viewBox="0 0 20 20" fill="none" xmlns="http://www.w3.org/2000/svg">
<path d="M3.55376 9.56519C3.78933 9.56519 4.01525 9.6568 4.18182 9.81988C4.3484 9.98295 4.44198 10.2041 4.44198 10.4348C5.83749 10.4327 7.19277 10.8924 8.28796 11.7391H10.2154C11.3985 11.7391 12.4626 12.2435 13.1945 13.0435H15.9888C16.8284 13.0432 17.6509 13.276 18.3608 13.7148C19.0708 14.1536 19.6391 14.7804 20 15.5226C17.8994 18.2365 14.4984 20 10.6595 20C8.18137 20 6.08518 19.4757 4.3878 18.5583C4.32566 18.7261 4.21214 18.8712 4.06272 18.9736C3.9133 19.076 3.73526 19.1307 3.55287 19.1304H0.888218C0.652648 19.1304 0.426726 19.0388 0.260153 18.8757C0.0935799 18.7127 0 18.4915 0 18.2609V10.4348C0 10.2041 0.0935799 9.98295 0.260153 9.81988C0.426726 9.6568 0.652648 9.56519 0.888218 9.56519H3.55287H3.55376ZM4.44198 12.1739V16.5409L4.48195 16.5687C6.07541 17.6643 8.15295 18.2609 10.6595 18.2609C13.3277 18.2609 15.8094 17.2556 17.6187 15.5391L17.7368 15.4235L17.6302 15.3365C17.2108 15.0149 16.7024 14.8241 16.1709 14.7887L15.9888 14.7826H14.1129C14.1777 15.0626 14.2124 15.353 14.2124 15.6522V16.5217H6.21841V14.7826L12.2494 14.7817L12.2192 14.713C12.0489 14.365 11.787 14.0675 11.4604 13.8513C11.1339 13.6351 10.7544 13.5078 10.3611 13.4826L10.2154 13.4782H7.61291C7.19996 13.0647 6.70668 12.7363 6.1621 12.5123C5.61752 12.2883 5.03267 12.1732 4.44198 12.1739ZM2.66554 11.3043H1.77732V17.3913H2.66554V11.3043Z" fill="#F38218"/>
<path d="M11.6391 9.56525L12.4329 6.02862L9.77051 3.6499L13.2879 3.33525L14.6557 0L16.0236 3.33525L19.5409 3.6499L16.8785 6.02862L17.6723 9.56525L14.6557 7.68996L11.6391 9.56525Z" fill="#F38218"/>
</svg>
