<svg width="19" height="20" viewBox="0 0 19 20" fill="none" xmlns="http://www.w3.org/2000/svg">
<path d="M15.8333 20C14.9537 20 14.206 19.7083 13.5903 19.125C12.9745 18.5417 12.6667 17.8333 12.6667 17C12.6667 16.8833 12.6755 16.7623 12.6931 16.637C12.7106 16.5117 12.737 16.3993 12.7722 16.3L5.33056 12.2C5.03148 12.45 4.69722 12.646 4.32778 12.788C3.95833 12.93 3.5713 13.0007 3.16667 13C2.28704 13 1.53935 12.7083 0.923611 12.125C0.30787 11.5417 0 10.8333 0 10C0 9.16667 0.30787 8.45833 0.923611 7.875C1.53935 7.29167 2.28704 7 3.16667 7C3.5713 7 3.95833 7.071 4.32778 7.213C4.69722 7.355 5.03148 7.55067 5.33056 7.8L12.7722 3.7C12.737 3.6 12.7106 3.48767 12.6931 3.363C12.6755 3.23833 12.6667 3.11733 12.6667 3C12.6667 2.16667 12.9745 1.45833 13.5903 0.875C14.206 0.291667 14.9537 0 15.8333 0C16.713 0 17.4606 0.291667 18.0764 0.875C18.6921 1.45833 19 2.16667 19 3C19 3.83333 18.6921 4.54167 18.0764 5.125C17.4606 5.70833 16.713 6 15.8333 6C15.4287 6 15.0417 5.92933 14.6722 5.788C14.3028 5.64667 13.9685 5.45067 13.6694 5.2L6.22778 9.3C6.26296 9.4 6.28935 9.51267 6.30695 9.638C6.32454 9.76333 6.33333 9.884 6.33333 10C6.33333 10.1167 6.32454 10.2377 6.30695 10.363C6.28935 10.4883 6.26296 10.6007 6.22778 10.7L13.6694 14.8C13.9685 14.55 14.3028 14.3543 14.6722 14.213C15.0417 14.0717 15.4287 14.0007 15.8333 14C16.713 14 17.4606 14.2917 18.0764 14.875C18.6921 15.4583 19 16.1667 19 17C19 17.8333 18.6921 18.5417 18.0764 19.125C17.4606 19.7083 16.713 20 15.8333 20Z" fill="#F38218"/>
</svg>
