<svg width="20" height="20" viewBox="0 0 20 20" fill="none" xmlns="http://www.w3.org/2000/svg">
<path d="M16.6667 20C15.7407 20 14.9537 19.7083 14.3056 19.125C13.6574 18.5417 13.3333 17.8333 13.3333 17C13.3333 16.8833 13.3426 16.7623 13.3611 16.637C13.3796 16.5117 13.4074 16.3993 13.4444 16.3L5.61111 12.2C5.2963 12.45 4.94444 12.646 4.55556 12.788C4.16667 12.93 3.75926 13.0007 3.33333 13C2.40741 13 1.62037 12.7083 0.972222 12.125C0.324074 11.5417 0 10.8333 0 10C0 9.16667 0.324074 8.45833 0.972222 7.875C1.62037 7.29167 2.40741 7 3.33333 7C3.75926 7 4.16667 7.071 4.55556 7.213C4.94444 7.355 5.2963 7.55067 5.61111 7.8L13.4444 3.7C13.4074 3.6 13.3796 3.48767 13.3611 3.363C13.3426 3.23833 13.3333 3.11733 13.3333 3C13.3333 2.16667 13.6574 1.45833 14.3056 0.875C14.9537 0.291667 15.7407 0 16.6667 0C17.5926 0 18.3796 0.291667 19.0278 0.875C19.6759 1.45833 20 2.16667 20 3C20 3.83333 19.6759 4.54167 19.0278 5.125C18.3796 5.70833 17.5926 6 16.6667 6C16.2407 6 15.8333 5.92933 15.4444 5.788C15.0556 5.64667 14.7037 5.45067 14.3889 5.2L6.55556 9.3C6.59259 9.4 6.62037 9.51267 6.63889 9.638C6.65741 9.76333 6.66667 9.884 6.66667 10C6.66667 10.1167 6.65741 10.2377 6.63889 10.363C6.62037 10.4883 6.59259 10.6007 6.55556 10.7L14.3889 14.8C14.7037 14.55 15.0556 14.3543 15.4444 14.213C15.8333 14.0717 16.2407 14.0007 16.6667 14C17.5926 14 18.3796 14.2917 19.0278 14.875C19.6759 15.4583 20 16.1667 20 17C20 17.8333 19.6759 18.5417 19.0278 19.125C18.3796 19.7083 17.5926 20 16.6667 20Z" fill="#F38218"/>
</svg>
