<svg width="21" height="19" viewBox="0 0 21 19" fill="none" xmlns="http://www.w3.org/2000/svg">
<path d="M11.2004 0.678283C11.2004 0.580477 11.1785 0.483835 11.1364 0.394979C11.0942 0.306123 11.0327 0.227153 10.9561 0.163481C10.8795 0.0998082 10.7897 0.0529379 10.6926 0.0260817C10.5956 -0.000774608 10.4937 -0.00698216 10.394 0.00788436L0.593623 1.45996C0.428392 1.48459 0.27771 1.56573 0.168831 1.68869C0.059951 1.81165 6.36102e-05 1.96832 0 2.13036V16.8683C6.36102e-05 17.0303 0.059951 17.187 0.168831 17.31C0.27771 17.4329 0.428392 17.514 0.593623 17.5387L10.394 18.9921C10.4937 19.007 10.5956 19.0008 10.6926 18.9739C10.7897 18.9471 10.8795 18.9002 10.9561 18.8365C11.0327 18.7728 11.0942 18.6939 11.1364 18.605C11.1785 18.5162 11.2004 18.4195 11.2004 18.3217V9.49932H18.4415L17.0457 10.6854C16.9143 10.806 16.8361 10.9711 16.8276 11.1463C16.8191 11.3215 16.8809 11.493 17.0001 11.625C17.1192 11.757 17.2864 11.8391 17.4667 11.8542C17.6469 11.8693 17.8262 11.8162 17.9669 11.7059L20.7614 9.33104C20.8364 9.26736 20.8964 9.18889 20.9376 9.10089C20.9787 9.01289 21 8.91739 21 8.82078C21 8.72416 20.9787 8.62866 20.9376 8.54067C20.8964 8.45267 20.8364 8.3742 20.7614 8.31052L17.9669 5.93562C17.8273 5.81721 17.6449 5.7574 17.4598 5.76936C17.2746 5.78133 17.102 5.86407 16.9799 5.9994C16.8577 6.13473 16.796 6.31156 16.8083 6.49099C16.8207 6.67041 16.906 6.83773 17.0457 6.95615L18.4415 8.14224H11.2004V0.678283ZM7.7003 11.1957C7.42181 11.1957 7.15473 11.0884 6.95781 10.8976C6.76089 10.7067 6.65026 10.4478 6.65026 10.1779C6.65026 9.90792 6.76089 9.64904 6.95781 9.45816C7.15473 9.26728 7.42181 9.16005 7.7003 9.16005C7.97879 9.16005 8.24587 9.26728 8.44279 9.45816C8.63971 9.64904 8.75034 9.90792 8.75034 10.1779C8.75034 10.4478 8.63971 10.7067 8.44279 10.8976C8.24587 11.0884 7.97879 11.1957 7.7003 11.1957ZM13.3005 17.6418H12.6005V10.8564H14.0005V16.9633C14.0005 17.1432 13.9268 17.3158 13.7955 17.4431C13.6642 17.5703 13.4862 17.6418 13.3005 17.6418ZM12.6005 6.78516V1.35682H13.3005C13.4862 1.35682 13.6642 1.42831 13.7955 1.55556C13.9268 1.68282 14.0005 1.85541 14.0005 2.03537V6.78516H12.6005Z" fill="#F38218"/>
</svg>
