<svg width="20" height="20" viewBox="0 0 20 20" fill="none" xmlns="http://www.w3.org/2000/svg">
<path d="M10.6671 0.713982C10.667 0.611029 10.6462 0.5093 10.6061 0.415768C10.5659 0.322235 10.5074 0.239109 10.4344 0.172085C10.3615 0.105061 10.2759 0.0557241 10.1835 0.0274544C10.091 -0.000815377 9.99403 -0.00734965 9.89905 0.00829933L0.565355 1.5368C0.407993 1.56273 0.264486 1.64813 0.160791 1.77757C0.0570962 1.907 6.05811e-05 2.07192 0 2.24249V17.7561C6.05811e-05 17.9267 0.0570962 18.0916 0.160791 18.221C0.264486 18.3504 0.407993 18.4358 0.565355 18.4618L9.89905 19.9917C9.99403 20.0074 10.091 20.0008 10.1835 19.9725C10.2759 19.9443 10.3615 19.8949 10.4344 19.8279C10.5074 19.7609 10.5659 19.6778 10.6061 19.5842C10.6462 19.4907 10.667 19.389 10.6671 19.286V9.99929H17.5633L16.234 11.2478C16.1088 11.3747 16.0344 11.5486 16.0263 11.733C16.0182 11.9173 16.0771 12.0979 16.1905 12.2369C16.304 12.3758 16.4633 12.4622 16.6349 12.4781C16.8066 12.494 16.9773 12.4381 17.1113 12.322L19.7728 9.82215C19.8442 9.75511 19.9014 9.67252 19.9405 9.57989C19.9797 9.48726 20 9.38673 20 9.28503C20 9.18333 19.9797 9.0828 19.9405 8.99018C19.9014 8.89755 19.8442 8.81495 19.7728 8.74791L17.1113 6.24802C16.9784 6.12338 16.8046 6.06042 16.6283 6.07302C16.452 6.08561 16.2876 6.17271 16.1713 6.31516C16.0549 6.45762 15.9962 6.64375 16.0079 6.83262C16.0197 7.02148 16.101 7.19762 16.234 7.32226L17.5633 8.57078H10.6671V0.713982ZM7.33362 11.7849C7.06839 11.7849 6.81403 11.672 6.62648 11.4711C6.43894 11.2702 6.33358 10.9977 6.33358 10.7135C6.33358 10.4294 6.43894 10.1569 6.62648 9.95596C6.81403 9.75504 7.06839 9.64216 7.33362 9.64216C7.59884 9.64216 7.85321 9.75504 8.04075 9.95596C8.22829 10.1569 8.33366 10.4294 8.33366 10.7135C8.33366 10.9977 8.22829 11.2702 8.04075 11.4711C7.85321 11.672 7.59884 11.7849 7.33362 11.7849ZM12.6672 18.5703H12.0005V11.4278H13.3338V17.8561C13.3338 18.0455 13.2636 18.2272 13.1386 18.3611C13.0136 18.4951 12.844 18.5703 12.6672 18.5703ZM12.0005 7.14227V1.42824H12.6672C12.844 1.42824 13.0136 1.50349 13.1386 1.63744C13.2636 1.77139 13.3338 1.95306 13.3338 2.14249V7.14227H12.0005Z" fill="#F38218"/>
</svg>
