<svg width="20" height="20" viewBox="0 0 20 20" fill="none" xmlns="http://www.w3.org/2000/svg">
<path d="M14.7368 4.90573e-09C15.5423 -4.4865e-05 16.3174 0.307711 16.9034 0.860299C17.4895 1.41289 17.8422 2.16853 17.8895 2.97263L17.8947 3.15789V13.6842H18.6842C19.3653 13.6842 19.9263 14.2021 19.9937 14.8653L20 15V16.8421C20 17.6476 19.6923 18.4226 19.1397 19.0087C18.5871 19.5947 17.8315 19.9475 17.0274 19.9947L16.8421 20H6.31579C5.5103 20 4.73525 19.6923 4.1492 19.1397C3.56315 18.5871 3.21041 17.8315 3.16316 17.0274L3.15789 16.8421V6.31579H1.31579C0.990044 6.31594 0.675823 6.19525 0.433931 5.97708C0.192038 5.75891 0.0396721 5.45877 0.00631584 5.13474L4.90573e-09 5V3.15789C-4.4865e-05 2.35241 0.307711 1.57735 0.860299 0.991304C1.41289 0.405256 2.16853 0.0525184 2.97263 0.00526328L3.15789 4.90573e-09H14.7368ZM17.8947 15.7895H8.42105V16.8421C8.42105 17.2105 8.35789 17.5653 8.24211 17.8947H16.8421C17.1213 17.8947 17.389 17.7838 17.5864 17.5864C17.7838 17.389 17.8947 17.1213 17.8947 16.8421V15.7895ZM10.5263 9.47368H8.42105C8.15276 9.47398 7.8947 9.57671 7.69961 9.76089C7.50452 9.94507 7.38712 10.1968 7.3714 10.4646C7.35567 10.7325 7.44282 10.9962 7.61502 11.2019C7.78722 11.4077 8.03148 11.5399 8.2979 11.5716L8.42105 11.5789H10.5263C10.7946 11.5787 11.0527 11.4759 11.2478 11.2917C11.4428 11.1076 11.5602 10.8558 11.576 10.588C11.5917 10.3202 11.5046 10.0564 11.3324 9.8507C11.1602 9.64496 10.9159 9.51274 10.6495 9.48105L10.5263 9.47368ZM12.6316 5.26316H8.42105C8.14188 5.26316 7.87414 5.37406 7.67673 5.57147C7.47932 5.76887 7.36842 6.03661 7.36842 6.31579C7.36842 6.59496 7.47932 6.86271 7.67673 7.06011C7.87414 7.25752 8.14188 7.36842 8.42105 7.36842H12.6316C12.9108 7.36842 13.1785 7.25752 13.3759 7.06011C13.5733 6.86271 13.6842 6.59496 13.6842 6.31579C13.6842 6.03661 13.5733 5.76887 13.3759 5.57147C13.1785 5.37406 12.9108 5.26316 12.6316 5.26316ZM3.15789 2.10526C2.87872 2.10526 2.61098 2.21617 2.41357 2.41357C2.21617 2.61098 2.10526 2.87872 2.10526 3.15789V4.21053H3.15789V2.10526Z" fill="#F38218"/>
</svg>
